<svg width="24" height="24" viewBox="0 0 24 24" fill="none" xmlns="http://www.w3.org/2000/svg">
<path d="M11.9155 12.7334C15.4318 12.7334 18.2823 9.88295 18.2823 6.36671C18.2823 2.85047 15.4318 0 11.9155 0C8.3993 0 5.54883 2.85047 5.54883 6.36671C5.54883 9.88295 8.3993 12.7334 11.9155 12.7334Z" fill="#685F5F"/>
<path d="M20.9891 21.2818C20.3274 22.5325 19.0869 23.2793 17.6721 23.2793H6.15816C4.7442 23.2793 3.50523 22.5325 2.84278 21.2826C2.18033 20.0311 2.26001 18.5859 3.09432 17.3579C3.93176 16.1259 5.18948 15.283 6.63625 14.9854C8.3619 14.6307 10.1383 14.451 11.9155 14.451C13.6928 14.451 15.4692 14.6307 17.1948 14.9854C18.6408 15.283 19.8993 16.1267 20.7391 17.3618L20.7766 17.4165C21.5719 18.5867 21.6515 20.0311 20.9891 21.2818Z" fill="#685F5F"/>
</svg>
