<svg width="16" height="20" viewBox="0 0 16 20" fill="none" xmlns="http://www.w3.org/2000/svg">
<g id="Group">
<g id="Vector">
<mask id="path-1-inside-1_13_88" fill="white">
<path d="M7.92864 10.6112C10.8588 10.6112 13.2342 8.23579 13.2342 5.30559C13.2342 2.3754 10.8588 0 7.92864 0C4.99844 0 2.62305 2.3754 2.62305 5.30559C2.62305 8.23579 4.99844 10.6112 7.92864 10.6112Z"/>
</mask>
<path d="M7.92864 10.6112C10.8588 10.6112 13.2342 8.23579 13.2342 5.30559C13.2342 2.3754 10.8588 0 7.92864 0C4.99844 0 2.62305 2.3754 2.62305 5.30559C2.62305 8.23579 4.99844 10.6112 7.92864 10.6112Z" stroke="#685F5F" stroke-width="3" mask="url(#path-1-inside-1_13_88)"/>
</g>
<g id="Vector_2">
<mask id="path-2-inside-2_13_88" fill="white">
<path d="M15.4906 17.7358C14.9392 18.778 13.9054 19.4004 12.7265 19.4004H3.13147C1.95317 19.4004 0.920699 18.778 0.368657 17.7365C-0.183385 16.6936 -0.116984 15.4892 0.578277 14.4659C1.27614 13.4392 2.32424 12.7368 3.52988 12.4888C4.96792 12.1932 6.44828 12.0435 7.92929 12.0435C9.4103 12.0435 10.8907 12.1932 12.3287 12.4888C13.5337 12.7368 14.5824 13.4399 15.2823 14.4691L15.3135 14.5147C15.9762 15.4899 16.0426 16.6936 15.4906 17.7358V17.7358Z"/>
</mask>
<path d="M15.4906 17.7358C14.9392 18.778 13.9054 19.4004 12.7265 19.4004H3.13147C1.95317 19.4004 0.920699 18.778 0.368657 17.7365C-0.183385 16.6936 -0.116984 15.4892 0.578277 14.4659C1.27614 13.4392 2.32424 12.7368 3.52988 12.4888C4.96792 12.1932 6.44828 12.0435 7.92929 12.0435C9.4103 12.0435 10.8907 12.1932 12.3287 12.4888C13.5337 12.7368 14.5824 13.4399 15.2823 14.4691L15.3135 14.5147C15.9762 15.4899 16.0426 16.6936 15.4906 17.7358V17.7358Z" stroke="#685F5F" stroke-width="3" mask="url(#path-2-inside-2_13_88)"/>
</g>
</g>
</svg>
