<svg width="6" height="10" viewBox="0 0 6 10" fill="none" xmlns="http://www.w3.org/2000/svg">
<path d="M1.16786 0.288779L6 5.00116L1.16786 9.71354C1.03615 9.84155 0.859447 9.91153 0.67661 9.90808C0.493773 9.90463 0.319783 9.82803 0.192917 9.69513C0.0660505 9.56223 -0.00330019 9.38392 0.000121117 9.19942C0.00354195 9.01492 0.0794549 8.83935 0.211159 8.71134L4.01769 5.00116L0.211159 1.28689C0.0794549 1.15887 0.00354195 0.983301 0.000121117 0.798804C-0.00330019 0.614307 0.0660505 0.435996 0.192917 0.303096C0.319783 0.170197 0.493773 0.0935946 0.67661 0.0901423C0.859447 0.0866909 1.03615 0.156671 1.16786 0.284688V0.288779Z" fill="#CDCACA"/>
</svg>
