<svg width="19" height="24" viewBox="0 0 19 24" fill="none" xmlns="http://www.w3.org/2000/svg">
<path d="M16.8344 7.60714L16.8358 7.60714C16.8475 7.60712 16.8621 7.61087 16.8784 7.62678C16.895 7.64298 16.9098 7.66914 16.9121 7.7054C16.9121 7.70567 16.9121 7.70594 16.9121 7.7062L17.6475 21.3233L17.6475 21.3239C17.6495 21.3599 17.6505 21.3956 17.6504 21.4311L17.6504 21.4315C17.6488 22.4635 16.8478 23.2516 15.9183 23.25H15.917L2.88381 23.25L2.88215 23.25C2.84951 23.2501 2.81662 23.2491 2.78356 23.2472L2.78341 23.2472C1.85377 23.1924 1.0969 22.355 1.15332 21.3238L1.15338 21.3228L1.88047 7.70621C1.88049 7.70588 1.88051 7.70555 1.88053 7.70523C1.88286 7.66906 1.89757 7.64296 1.91417 7.62678C1.93049 7.61087 1.94506 7.60712 1.95681 7.60714H1.95818H5.26401H6.01401V6.85714V4.28571C6.01401 2.30697 7.55384 0.75 9.39629 0.75C11.2388 0.75 12.7786 2.30697 12.7786 4.28571V6.85714V7.60714H13.5286L16.8344 7.60714ZM11.8757 7.60714H12.6257V6.85714V4.28571C12.6257 2.47733 11.2054 0.964285 9.39629 0.964285C7.58721 0.964285 6.16692 2.47733 6.16692 4.28571V6.85714V7.60714H6.91692H11.8757Z" stroke="#685F5F" stroke-width="1.5"/>
</svg>
