<svg width="19" height="24" viewBox="0 0 19 24" fill="none" xmlns="http://www.w3.org/2000/svg">
<path d="M17.6609 7.66285C17.6346 7.20964 17.2722 6.85634 16.8344 6.85714H13.5286V4.28571C13.5286 1.91877 11.6785 0 9.39629 0C7.11409 0 5.26401 1.91877 5.26401 4.28571V6.85714H1.95818C1.52042 6.85634 1.15797 7.20964 1.13173 7.66285L0.404444 21.2829C0.326861 22.7007 1.37223 23.9154 2.73934 23.9959C2.78743 23.9987 2.83562 24.0001 2.88381 24H15.917C17.2864 24.0023 18.3982 22.8529 18.4004 21.4327C18.4005 21.3827 18.3991 21.3327 18.3964 21.2829L17.6609 7.66285ZM6.91692 4.28571C6.91692 2.86554 8.02696 1.71429 9.39629 1.71429C10.7656 1.71429 11.8757 2.86554 11.8757 4.28571V6.85714H6.91692V4.28571Z" fill="#685F5F"/>
</svg>
