<svg width="20" height="20" viewBox="0 0 20 20" fill="none" xmlns="http://www.w3.org/2000/svg">
<g id="Property 1=Default">
<g id="Vector">
<mask id="path-1-inside-1_13_84" fill="white">
<path d="M16.3837 6.38571C16.3619 6.00803 16.0598 5.71361 15.695 5.71428H12.9402V3.57143C12.9402 1.59897 11.3984 0 9.49659 0C7.59475 0 6.05302 1.59897 6.05302 3.57143V5.71428H3.29816C2.93336 5.71361 2.63131 6.00803 2.60945 6.38571L2.00338 17.7357C1.93873 18.9173 2.80986 19.9295 3.94912 19.9966C3.9892 19.9989 4.02936 20.0001 4.06952 20H14.9305C16.0717 20.0019 16.9981 19.0441 17 17.8606C17.0001 17.8189 16.999 17.7773 16.9967 17.7357L16.3837 6.38571ZM7.43044 3.57143C7.43044 2.38795 8.35547 1.42857 9.49659 1.42857C10.6377 1.42857 11.5627 2.38795 11.5627 3.57143V5.71428H7.43044V3.57143Z"/>
</mask>
<path d="M16.3837 6.38571C16.3619 6.00803 16.0598 5.71361 15.695 5.71428H12.9402V3.57143C12.9402 1.59897 11.3984 0 9.49659 0C7.59475 0 6.05302 1.59897 6.05302 3.57143V5.71428H3.29816C2.93336 5.71361 2.63131 6.00803 2.60945 6.38571L2.00338 17.7357C1.93873 18.9173 2.80986 19.9295 3.94912 19.9966C3.9892 19.9989 4.02936 20.0001 4.06952 20H14.9305C16.0717 20.0019 16.9981 19.0441 17 17.8606C17.0001 17.8189 16.999 17.7773 16.9967 17.7357L16.3837 6.38571ZM7.43044 3.57143C7.43044 2.38795 8.35547 1.42857 9.49659 1.42857C10.6377 1.42857 11.5627 2.38795 11.5627 3.57143V5.71428H7.43044V3.57143Z" stroke="#685F5F" stroke-width="3" mask="url(#path-1-inside-1_13_84)"/>
</g>
</g>
</svg>
