<svg width="10" height="10" viewBox="0 0 10 10" fill="none" xmlns="http://www.w3.org/2000/svg">
<path fill-rule="evenodd" clip-rule="evenodd" d="M1.06769 0.000782611C1.33179 -0.00941856 1.59002 0.0804142 1.79077 0.252331L1.80721 0.266413L5.02967 3.49329L8.25174 0.271228L8.26804 0.25727C8.46879 0.0853538 8.72701 -0.00448071 8.99112 0.00572052C9.25523 0.0159218 9.50575 0.125407 9.69264 0.312296C9.87953 0.499187 9.98902 0.749716 9.99922 1.01382C10.0094 1.27792 9.91959 1.53615 9.74767 1.7369L9.73371 1.7532L6.51137 4.97553L9.73371 8.19787L9.74767 8.21417C9.91959 8.41492 10.0094 8.67315 9.99922 8.93725C9.98902 9.20135 9.87953 9.45188 9.69264 9.63877C9.50575 9.82566 9.25522 9.93515 8.99112 9.94535C8.72702 9.95555 8.46879 9.86572 8.26804 9.6938L8.25174 9.67984L5.02913 6.45724L1.8295 9.65249C1.7386 9.75352 1.62889 9.836 1.5064 9.89525C1.37621 9.95824 1.2344 9.99364 1.08989 9.99922C0.945366 10.0048 0.801252 9.98045 0.66659 9.92769C0.53193 9.87494 0.409627 9.79491 0.307357 9.69264C0.205091 9.59038 0.125067 9.46808 0.0723089 9.33341C0.0195515 9.19875 -0.00480019 9.05463 0.00078198 8.91011C0.00636429 8.76559 0.0417613 8.62379 0.104748 8.4936C0.16407 8.37098 0.24666 8.26116 0.347842 8.17021L3.54743 4.975L0.324974 1.74811L0.31114 1.73196C0.139223 1.53121 0.0493893 1.27299 0.0595905 1.00888C0.0697917 0.744775 0.179277 0.494246 0.366166 0.307358C0.553055 0.120468 0.803584 0.0109838 1.06769 0.000782611Z" fill="white"/>
</svg>
