<svg width="20" height="20" viewBox="0 0 20 20" fill="none" xmlns="http://www.w3.org/2000/svg">
<path d="M12.1892 10.0849L19.6318 2.64798C19.8826 2.35525 20.0137 1.9787 19.9989 1.59358C19.984 1.20846 19.8242 0.843134 19.5515 0.57061C19.2787 0.298085 18.9131 0.138434 18.5277 0.123559C18.1423 0.108683 17.7655 0.239679 17.4725 0.49037L10.0299 7.85074L2.54142 0.367952C2.24846 0.117261 1.87162 -0.0137343 1.4862 0.00114122C1.10079 0.0160167 0.735184 0.175668 0.462451 0.448192C0.189718 0.720716 0.0299447 1.08604 0.0150578 1.47116C0.000170884 1.85628 0.131267 2.23283 0.382149 2.52557L7.85535 10.0849L0.535289 17.3075C0.37498 17.4447 0.244781 17.6135 0.152862 17.8033C0.0609423 17.9932 0.0092874 18.2 0.00114116 18.4107C-0.00700507 18.6215 0.0285323 18.8316 0.105522 19.028C0.182513 19.2243 0.299294 19.4027 0.448536 19.5518C0.597777 19.7009 0.776257 19.8176 0.972773 19.8946C1.16929 19.9715 1.3796 20.007 1.5905 19.9989C1.8014 19.9907 2.00834 19.9391 2.19834 19.8473C2.38833 19.7554 2.55727 19.6253 2.69455 19.4651L9.9993 12.166L17.2581 19.4192C17.5511 19.6699 17.9279 19.8009 18.3133 19.786C18.6987 19.7712 19.0643 19.6115 19.3371 19.339C19.6098 19.0665 19.7696 18.7011 19.7845 18.316C19.7994 17.9309 19.6683 17.5543 19.4174 17.2616L12.1892 10.0849Z" fill="#DBD7D2"/>
</svg>
