<svg width="38" height="38" viewBox="0 0 38 38" fill="none" xmlns="http://www.w3.org/2000/svg">
<path d="M4.75 7.91699H11.0833M33.25 7.91699H17.4167M4.75 19.0003H23.75M33.25 19.0003H30.0833M4.75 30.0837H7.91667M33.25 30.0837H14.25" stroke="#685F5F" stroke-width="2" stroke-linecap="round"/>
<path d="M14.2497 11.5833C16.2747 11.5833 17.9163 9.94171 17.9163 7.91667C17.9163 5.89162 16.2747 4.25 14.2497 4.25C12.2246 4.25 10.583 5.89162 10.583 7.91667C10.583 9.94171 12.2246 11.5833 14.2497 11.5833Z" fill="#A9A1A1" stroke="white" stroke-linecap="round"/>
<path d="M26.9167 22.6663C28.9417 22.6663 30.5833 21.0247 30.5833 18.9997C30.5833 16.9746 28.9417 15.333 26.9167 15.333C24.8916 15.333 23.25 16.9746 23.25 18.9997C23.25 21.0247 24.8916 22.6663 26.9167 22.6663Z" fill="#A9A1A1" stroke="white" stroke-linecap="round"/>
<path d="M11.0837 33.7503C13.1087 33.7503 14.7503 32.1087 14.7503 30.0837C14.7503 28.0586 13.1087 26.417 11.0837 26.417C9.05861 26.417 7.41699 28.0586 7.41699 30.0837C7.41699 32.1087 9.05861 33.7503 11.0837 33.7503Z" fill="#A9A1A1" stroke="white" stroke-linecap="round"/>
</svg>
