<svg width="24" height="22" viewBox="0 0 24 22" fill="none" xmlns="http://www.w3.org/2000/svg">
<path d="M11.4907 21.8995C11.6522 21.9671 11.8254 22.0013 12 22C12.1733 22.0002 12.3449 21.9655 12.505 21.8979C12.665 21.8303 12.8104 21.7311 12.9326 21.6061L21.9035 12.4773C22.709 11.6554 23.3105 10.65 23.6583 9.54433C24.006 8.4387 24.0899 7.26466 23.903 6.11946C23.7161 4.97426 23.2638 3.89086 22.5835 2.959C21.9033 2.02715 21.0147 1.27365 19.9913 0.760935C18.7004 0.104994 17.2434 -0.134121 15.8153 0.0755739C14.3872 0.285269 13.0561 0.933775 12 1.93435C10.9445 0.932741 9.61328 0.283543 8.18493 0.0738099C6.75658 -0.135924 5.29936 0.103835 4.0087 0.760935C2.98534 1.27365 2.09674 2.02715 1.41649 2.959C0.736249 3.89086 0.283943 4.97426 0.097041 6.11946C-0.0898609 7.26466 -0.00597937 8.4387 0.341737 9.54433C0.689454 10.65 1.291 11.6554 2.09654 12.4773L11.0594 21.6061C11.1825 21.7321 11.3292 21.8319 11.4907 21.8995Z" fill="white"/>
</svg>
