<svg width="24" height="25" viewBox="0 0 24 25" fill="none" xmlns="http://www.w3.org/2000/svg">
<g clip-path="url(#clip0_392_1397)">
<path fill-rule="evenodd" clip-rule="evenodd" d="M12.5868 22.9924C12.7729 22.9153 12.9418 22.802 13.0839 22.6593L21.8752 13.8759C22.6916 13.0581 23.3013 12.0577 23.6537 10.9575C24.0061 9.85738 24.0911 8.68915 23.9017 7.54962C23.7122 6.41008 23.2538 5.33206 22.5644 4.40484C21.8752 3.4778 20.9748 2.72819 19.938 2.21804C18.6293 1.56532 17.1524 1.32741 15.7048 1.53611C14.3297 1.73435 13.0433 2.32658 12.0001 3.23885C10.9574 2.32558 9.67087 1.7327 8.29547 1.53441C6.84754 1.32567 5.37034 1.56422 4.06191 2.21808C3.02511 2.72822 2.12481 3.47782 1.43557 4.40484C0.74617 5.33206 0.28777 6.41008 0.0983488 7.54962C-0.0910721 8.68915 -0.0060594 9.85738 0.346342 10.9575C0.698743 12.0577 1.30854 13.0582 2.12491 13.876L10.9083 22.6595C11.0515 22.8033 11.2219 22.9171 11.4096 22.9942C11.5971 23.0713 11.798 23.1103 12.0007 23.1089C12.2019 23.109 12.401 23.0694 12.5868 22.9924ZM4.87824 3.81533C4.08595 4.20802 3.39897 4.78409 2.87445 5.49558C2.35007 6.20687 2.00321 7.03296 1.8627 7.90516C1.73144 8.7539 1.80173 9.62159 2.06793 10.4382C2.33417 11.2549 2.78892 11.9977 3.39545 12.6064L12.0155 21.22L20.6043 12.6066C21.211 11.9978 21.6658 11.255 21.9321 10.4382C22.1982 9.62164 22.2686 8.754 22.1373 7.90531C21.9968 7.03306 21.65 6.20691 21.1256 5.49558C20.6013 4.78443 19.9147 4.20858 19.1229 3.81589C18.0967 3.32072 16.9413 3.15801 15.8181 3.3505C14.6944 3.54306 13.659 4.08145 12.8565 4.89046L12.8541 4.89283C12.626 5.11636 12.3194 5.24155 12 5.24155C11.6806 5.24155 11.374 5.11636 11.1459 4.89283C10.0939 3.85579 8.67681 3.27121 7.19901 3.26524C6.39352 3.26077 5.59829 3.449 4.88049 3.8142L4.87824 3.81533Z" fill="#685F5F"/>
</g>
<defs>
<clipPath id="clip0_392_1397">
<rect width="24" height="24" fill="white" transform="translate(0 0.5)"/>
</clipPath>
</defs>
</svg>
