<svg width="24" height="24" viewBox="0 0 24 24" fill="none" xmlns="http://www.w3.org/2000/svg">
<path d="M11.4907 22.7006C11.6522 22.767 11.8254 22.8005 12 22.7992C12.1733 22.7994 12.3449 22.7654 12.505 22.699C12.665 22.6326 12.8104 22.5352 12.9326 22.4125L21.9035 13.4496C22.709 12.6427 23.3105 11.6556 23.6583 10.57C24.006 9.48449 24.0899 8.33179 23.903 7.20741C23.7161 6.08304 23.2638 5.01934 22.5835 4.10442C21.9033 3.18951 21.0147 2.44971 19.9913 1.94632C18.7004 1.3023 17.2434 1.06754 15.8153 1.27342C14.3872 1.4793 13.0561 2.11602 12 3.0984C10.9445 2.115 9.61328 1.47761 8.18493 1.27169C6.75658 1.06577 5.29936 1.30117 4.0087 1.94632C2.98534 2.44971 2.09674 3.18951 1.41649 4.10442C0.736249 5.01934 0.283943 6.08304 0.097041 7.20741C-0.0898609 8.33179 -0.00597937 9.48449 0.341737 10.57C0.689454 11.6556 1.291 12.6427 2.09654 13.4496L11.0594 22.4125C11.1825 22.5362 11.3292 22.6341 11.4907 22.7006Z" fill="#685F5F"/>
</svg>
