<svg width="30" height="27" viewBox="0 0 30 27" fill="none" xmlns="http://www.w3.org/2000/svg">
<path id="Vector" d="M14.3634 26.8767C14.5652 26.9597 14.7817 27.0016 15 27C15.2166 27.0002 15.4311 26.9577 15.6312 26.8747C15.8313 26.7917 16.0129 26.67 16.1657 26.5166L27.3793 15.313C28.3863 14.3043 29.1382 13.0704 29.5728 11.7135C30.0075 10.3566 30.1123 8.91572 29.8787 7.51024C29.6451 6.10477 29.0797 4.77515 28.2294 3.6315C27.3791 2.48786 26.2683 1.56312 24.9891 0.933875C23.3755 0.128857 21.5543 -0.164603 19.7692 0.0927498C17.984 0.350103 16.3201 1.146 15 2.37397C13.6806 1.14473 12.0166 0.347985 10.2312 0.0905849C8.44572 -0.166815 6.6242 0.127434 5.01088 0.933875C3.73168 1.56312 2.62092 2.48786 1.77062 3.6315C0.920311 4.77515 0.354929 6.10477 0.121301 7.51024C-0.112326 8.91572 -0.00747421 10.3566 0.427172 11.7135C0.861818 13.0704 1.61375 14.3043 2.62068 15.313L13.8242 26.5166C13.9782 26.6712 14.1615 26.7937 14.3634 26.8767Z" fill="#685F5F"/>
</svg>
