<svg width="22" height="22" viewBox="0 0 22 22" fill="none" xmlns="http://www.w3.org/2000/svg">
<path fill-rule="evenodd" clip-rule="evenodd" d="M4.82704 19.6504H7.76372V13.4006H14.2371V19.6504H17.1737V8.80283L11.0004 2.64828L4.82704 8.79848V19.6504ZM20.9817 10.5727L11.5164 1.11129C11.3801 0.976301 11.1956 0.900391 11.0035 0.900391C10.8115 0.900391 10.6272 0.976092 10.4909 1.11108L1.08066 10.4861L1.0754 10.4917C0.956196 10.6304 0.893855 10.8088 0.900934 10.9914C0.908012 11.174 0.983982 11.3471 1.11356 11.4762C1.24312 11.6053 1.41673 11.6808 1.59967 11.6879C1.78261 11.6949 1.96153 11.6329 2.10068 11.5142L3.37238 10.2477V19.7504C3.37238 20.1086 3.51519 20.452 3.76928 20.7051C4.02336 20.9583 4.36789 21.1004 4.72704 21.1004H9.21839V14.8505H12.7824V21.1004H17.2737C17.6329 21.1004 17.9774 20.9583 18.2315 20.7051C18.4856 20.452 18.6284 20.1086 18.6284 19.7504V10.2427L19.8941 11.5149L19.9001 11.5205C20.0392 11.6392 20.2182 11.7012 20.4011 11.6941C20.5841 11.6871 20.7577 11.6115 20.8872 11.4825C21.0168 11.3534 21.0928 11.1802 21.0998 10.9977C21.1057 10.8464 21.0639 10.698 20.9817 10.5727Z" fill="#685F5F"/>
</svg>
