<svg width="93" height="42" viewBox="0 0 93 42" fill="none" xmlns="http://www.w3.org/2000/svg">
<path d="M20.0105 0V29.3651C20.0105 30.6722 20.2261 31.6452 20.6574 32.2842C21.0887 32.8942 21.8506 33.1992 22.9431 33.1992V34.1141C22.0518 34.027 21.1605 33.9834 20.2693 33.9834C19.2055 33.9834 18.1992 34.027 17.2504 34.1141C16.3017 34.2012 15.4104 34.361 14.5766 34.5934V5.22822C14.5766 3.92116 14.361 2.96266 13.9297 2.3527C13.5272 1.71369 12.7653 1.39419 11.6441 1.39419V0.479255C12.5641 0.56639 13.4553 0.609958 14.3179 0.609958C15.4104 0.609958 16.4311 0.56639 17.3798 0.479255C18.3286 0.363072 19.2055 0.20332 20.0105 0ZM9.70338 10.9793C10.9684 10.9793 12.1041 11.2261 13.1103 11.7199C14.1166 12.2137 14.8641 13.0415 15.3529 14.2033L14.8354 14.639C14.4329 13.7967 13.8866 13.1722 13.1966 12.7656C12.5066 12.3589 11.7303 12.1556 10.8678 12.1556C9.31524 12.1556 8.06458 13.0415 7.11581 14.8133C6.19579 16.556 5.73577 19.2427 5.73577 22.8734C5.73577 25.3133 5.92265 27.2884 6.29641 28.7988C6.67017 30.2801 7.20206 31.3548 7.89208 32.0228C8.61085 32.6909 9.45899 33.0249 10.4365 33.0249C11.4715 33.0249 12.4059 32.6037 13.2397 31.7614C14.0735 30.89 14.5623 29.6556 14.706 28.0581L15.0079 29.278C14.6341 31.0498 13.9297 32.4004 12.8947 33.3299C11.8597 34.2593 10.494 34.7241 8.79773 34.7241C7.07268 34.7241 5.53452 34.3029 4.18323 33.4606C2.8607 32.5892 1.82567 31.2822 1.07815 29.5394C0.359384 27.7676 0 25.5311 0 22.8299C0 20.1867 0.431261 17.9938 1.29378 16.251C2.15631 14.4793 3.32071 13.1577 4.787 12.2863C6.25329 11.4149 7.89208 10.9793 9.70338 10.9793Z" fill="#685F5F"/>
<path d="M35.7428 10.9793C38.2729 10.9793 40.2567 11.749 41.6942 13.2884C43.1317 14.8278 43.8505 17.2822 43.8505 20.6515H29.317L29.2739 19.8237H38.8479C38.9054 18.4004 38.8191 17.0934 38.5891 15.9025C38.3591 14.6826 37.9853 13.7095 37.4678 12.9834C36.9791 12.2573 36.3322 11.8942 35.5272 11.8942C34.4346 11.8942 33.4859 12.5477 32.6808 13.8548C31.8758 15.1328 31.3727 17.2386 31.1714 20.1722L31.3439 20.4336C31.2864 20.8112 31.2433 21.2178 31.2145 21.6535C31.2145 22.0892 31.2145 22.5249 31.2145 22.9606C31.2145 24.9647 31.5021 26.6203 32.0771 27.9274C32.6521 29.2344 33.3996 30.1929 34.3196 30.8029C35.2397 31.4129 36.1884 31.7178 37.166 31.7178C37.8272 31.7178 38.5029 31.6162 39.1929 31.4129C39.8829 31.2095 40.5585 30.8319 41.2198 30.2801C41.8811 29.7282 42.4848 28.944 43.0311 27.9274L43.8505 28.2759C43.5342 29.2925 43.0024 30.3091 42.2548 31.3257C41.5361 32.3133 40.6017 33.1266 39.4516 33.7656C38.3016 34.4046 36.9503 34.7241 35.3978 34.7241C33.4427 34.7241 31.7177 34.2884 30.2226 33.417C28.7276 32.5456 27.5632 31.2531 26.7294 29.5394C25.8957 27.7967 25.4788 25.6763 25.4788 23.1784C25.4788 20.5353 25.91 18.3133 26.7726 16.5124C27.6638 14.7116 28.8857 13.3465 30.4383 12.417C31.9908 11.4585 33.759 10.9793 35.7428 10.9793Z" fill="#685F5F"/>
<path d="M56.6539 10.9793C58.1202 10.9793 59.3565 11.2407 60.3627 11.7635C61.3978 12.2573 62.2603 13.1286 62.9503 14.3776H62.2603C61.7715 13.5353 61.139 12.9253 60.3627 12.5477C59.5865 12.1411 58.7383 11.9378 57.8183 11.9378C56.2945 11.9378 55.1157 12.8382 54.282 14.639C53.4482 16.4398 53.0313 19.1846 53.0313 22.8734C53.0313 25.2842 53.2182 27.2448 53.5919 28.7552C53.9657 30.2656 54.512 31.3548 55.2307 32.0228C55.9495 32.6909 56.7833 33.0249 57.7321 33.0249C58.7958 33.0249 59.7446 32.5602 60.5784 31.6307C61.4409 30.6722 61.9297 29.3071 62.0447 27.5353L62.3465 28.7552C62.0015 30.6722 61.2684 32.1535 60.1471 33.1992C59.0546 34.2158 57.7177 34.7241 56.1364 34.7241C54.4976 34.7241 53.0026 34.3029 51.6513 33.4606C50.3 32.6183 49.2362 31.3112 48.4599 29.5394C47.6837 27.7676 47.2955 25.5311 47.2955 22.8299C47.2955 20.1867 47.698 17.9938 48.5031 16.251C49.3081 14.4793 50.415 13.1577 51.8238 12.2863C53.2326 11.4149 54.8426 10.9793 56.6539 10.9793ZM66.9179 10.8921L67.6079 11.2842C67.4929 11.6618 67.4067 12.0685 67.3492 12.5041C67.3204 12.9108 67.306 13.3174 67.306 13.7241V38.2095C67.306 39.3133 67.5073 40.0685 67.9098 40.4751C68.3123 40.8817 69.0023 41.0851 69.9799 41.0851V42C69.4624 41.971 68.7148 41.9274 67.7373 41.8693C66.7885 41.8402 65.811 41.8257 64.8047 41.8257C63.4247 41.8257 62.1022 41.8402 60.8371 41.8693C59.5721 41.9274 58.5946 41.971 57.9046 42V41.0851C59.1408 41.0851 60.104 40.8527 60.794 40.388C61.5128 39.9523 61.8722 39.0809 61.8722 37.7739V13.3755C62.4759 13.2884 63.0797 13.1286 63.6835 12.8963C64.316 12.6639 64.9054 12.3734 65.4516 12.0249C66.0266 11.6763 66.5154 11.2988 66.9179 10.8921Z" fill="#685F5F"/>
<path d="M82.535 10.9793C84.5188 10.9793 86.2726 11.3859 87.7963 12.1992C89.3489 12.9834 90.5708 14.2469 91.4621 15.9896C92.3821 17.7324 92.8421 20.027 92.8421 22.8734C92.8421 25.7199 92.3821 28.0145 91.4621 29.7573C90.5708 31.5 89.3489 32.7635 87.7963 33.5477C86.2726 34.3319 84.5188 34.7241 82.535 34.7241C80.5512 34.7241 78.783 34.3319 77.2305 33.5477C75.6779 32.7635 74.456 31.5 73.5647 29.7573C72.6735 28.0145 72.2278 25.7199 72.2278 22.8734C72.2278 20.027 72.6735 17.7324 73.5647 15.9896C74.456 14.2469 75.6779 12.9834 77.2305 12.1992C78.783 11.3859 80.5512 10.9793 82.535 10.9793ZM82.535 11.8506C81.1837 11.8506 80.0768 12.722 79.2142 14.4647C78.3805 16.1784 77.9636 18.9813 77.9636 22.8734C77.9636 26.7656 78.3805 29.5685 79.2142 31.2822C80.0768 32.9958 81.1837 33.8527 82.535 33.8527C83.8575 33.8527 84.95 32.9958 85.8125 31.2822C86.6751 29.5685 87.1063 26.7656 87.1063 22.8734C87.1063 18.9813 86.6751 16.1784 85.8125 14.4647C84.95 12.722 83.8575 11.8506 82.535 11.8506Z" fill="#685F5F"/>
</svg>
