<svg width="90" height="31" viewBox="0 0 90 31" fill="none" xmlns="http://www.w3.org/2000/svg">
<path d="M8.08921 4.796C3.87721 4.796 0.457213 8.216 0.457213 12.428V18.368C0.457213 22.58 3.87721 26 8.08921 26H14.0292C18.2412 26 21.6612 22.58 21.6612 18.368C21.6612 12.464 21.6612 6.632 21.6612 0.763999H15.0732C15.0732 6.632 15.0732 12.5 15.0732 18.368C15.0732 18.944 14.6052 19.412 14.0292 19.412H8.08921C7.51321 19.412 7.04521 18.944 7.04521 18.368V12.428C7.04521 11.852 7.51321 11.384 8.08921 11.384H14.0292V4.796H8.08921ZM43.8698 13.868C45.5618 8.468 41.3138 4.796 36.6338 4.796H30.7298C26.5178 4.796 23.0978 8.216 23.0978 12.428V18.368C23.0978 22.58 26.5178 26 30.7298 26C35.2298 26 39.7298 26 44.1938 26V19.412C39.7298 19.412 35.2298 19.412 30.7298 19.412C30.1538 19.412 29.6858 18.944 29.6858 18.368V12.428C29.6858 11.852 30.1538 11.384 30.7298 11.384H36.6338C37.3898 11.384 37.8218 11.996 37.6058 12.716L35.8418 18.404H42.4298L43.8698 13.868ZM59.0284 26V19.412H53.1244C52.5124 19.412 52.0444 18.944 52.0444 18.368V12.428C52.0444 11.852 52.5124 11.384 53.1244 11.384H59.0284C59.6044 11.384 60.0724 11.852 60.0724 12.428C60.0724 18.332 60.0724 24.164 60.0724 30.032H66.6604C66.6604 24.164 66.6604 18.332 66.6604 12.428C66.6604 8.216 63.2404 4.796 59.0284 4.796H53.1244C48.8764 4.796 45.4564 8.216 45.4564 12.428V18.368C45.4564 22.58 48.8764 26 53.1244 26H59.0284ZM75.7658 4.796C71.5538 4.796 68.0978 8.216 68.0978 12.428V18.368C68.0978 22.58 71.5538 26 75.7658 26H81.6698C85.8818 26 89.3018 22.58 89.3018 18.368V12.428C89.3018 8.216 85.8818 4.796 81.6698 4.796H75.7658ZM81.6698 11.384C82.2458 11.384 82.7138 11.852 82.7138 12.428V18.368C82.7138 18.944 82.2458 19.412 81.6698 19.412H75.7658C75.1898 19.412 74.6858 18.944 74.6858 18.368V12.428C74.6858 11.852 75.1898 11.384 75.7658 11.384H81.6698Z" fill="#685F5F"/>
</svg>
