<svg width="24" height="25" viewBox="0 0 24 25" fill="none" xmlns="http://www.w3.org/2000/svg">
<path d="M10.5714 1.65C8.07271 1.65 5.67633 2.64261 3.90947 4.40947C2.14261 6.17633 1.15 8.57271 1.15 11.0714C1.15 12.3087 1.39369 13.5338 1.86716 14.6769C2.34063 15.8199 3.03461 16.8585 3.90947 17.7334C4.78433 18.6082 5.82294 19.3022 6.966 19.7757C8.10907 20.2492 9.33419 20.4929 10.5714 20.4929C11.8087 20.4929 13.0338 20.2492 14.1769 19.7757C15.0573 19.411 15.8758 18.9155 16.6052 18.3073L21.399 23.101C21.7309 23.433 22.2691 23.433 22.601 23.101C22.933 22.7691 22.933 22.2309 22.601 21.899L17.8073 17.1052C18.4155 16.3758 18.911 15.5573 19.2757 14.6769C19.7492 13.5338 19.9929 12.3087 19.9929 11.0714C19.9929 8.57271 19.0002 6.17633 17.2334 4.40947C15.4665 2.64261 13.0701 1.65 10.5714 1.65ZM5.11155 5.61155C6.5596 4.16351 8.52358 3.35 10.5714 3.35C12.6193 3.35 14.5833 4.16351 16.0313 5.61155C17.4794 7.0596 18.2929 9.02358 18.2929 11.0714C18.2929 12.0854 18.0931 13.0895 17.7051 14.0263C17.3171 14.9631 16.7483 15.8143 16.0313 16.5313C15.3143 17.2483 14.4631 17.8171 13.5263 18.2051C12.5895 18.5931 11.5854 18.7929 10.5714 18.7929C9.55744 18.7929 8.55337 18.5931 7.61657 18.2051C6.67976 17.8171 5.82856 17.2483 5.11155 16.5313C4.39455 15.8143 3.8258 14.9631 3.43776 14.0263C3.04972 13.0895 2.85 12.0854 2.85 11.0714C2.85 9.02358 3.66351 7.0596 5.11155 5.61155Z" fill="#685F5F" stroke="#685F5F" stroke-width="0.2" stroke-linecap="round" stroke-linejoin="round"/>
</svg>
