<svg width="30" height="30" viewBox="0 0 30 30" fill="none" xmlns="http://www.w3.org/2000/svg">
<path d="M20.6932 6.923C22.1843 6.41068 22.4974 5.55895 22.4974 4.37477C20.9974 2.5 19.1395 0.625 14.9974 0.625C10.8552 0.625 8.99735 2.5 7.49735 4.37477C7.49735 5.55749 7.74194 6.40858 9.20887 6.9211C8.71561 7.06819 7.22498 7.59255 6.30819 8.77943C5.19713 10.2178 0.623047 26.8758 0.623047 26.8758L4.37305 28.1258L7.49805 21.8758L7.49805 25.9631H22.5001V22.5016L25.7294 27.9233L29.1909 26.7695C29.1909 26.7695 25.9611 15.5777 23.654 8.77943C23.2233 7.51046 20.7679 6.92331 20.7679 6.92331L20.6932 6.923Z" fill="#DBD7D2"/>
<path d="M7.5 11.25L7.5 26.25L22.5 26.25L22.5 11.25" stroke="#413C3C" stroke-width="0.8"/>
<path d="M13.125 13.75L14.375 7.5L15.625 7.5L16.875 13.75" stroke="#413C3C" stroke-width="0.8" stroke-linecap="round"/>
<path d="M19.5347 2.13968C20.5979 2.77872 21.381 3.62646 22.0984 4.51362C22.088 4.94028 22.0272 5.28 21.8893 5.56017C21.7422 5.8589 21.4891 6.12665 21.0262 6.35543C20.0627 6.83155 18.2763 7.1 15 7.1C13.3208 7.1 12.0272 7.03432 11.0315 6.9062C10.0323 6.77762 9.3569 6.58892 8.89952 6.35721C8.45401 6.13152 8.22067 5.86835 8.08734 5.57248C7.96036 5.29071 7.90975 4.94843 7.9013 4.51403C8.61871 3.62672 9.40194 2.77882 10.4653 2.13968C11.5665 1.47775 12.9939 1.025 15 1.025C17.0061 1.025 18.4335 1.47775 19.5347 2.13968Z" stroke="#413C3C" stroke-width="0.8" stroke-linejoin="round"/>
<path d="M11.75 5.12451C11.75 5.12451 12.4995 4.375 14.9995 4.375C17.4995 4.375 18.25 5.12451 18.25 5.12451" stroke="#413C3C" stroke-width="0.8" stroke-linecap="round"/>
<path d="M9.3746 6.87488C9.3746 6.87488 7.42071 7.34021 6.30965 8.77861C5.19859 10.217 0.62451 26.875 0.62451 26.875L4.37451 28.125L7.49951 21.875" stroke="#413C3C" stroke-width="0.8" stroke-linecap="round" stroke-linejoin="round"/>
<path d="M20.6274 6.87488C20.6274 6.87488 22.5812 7.34021 23.6923 8.77861C24.8034 10.217 29.3774 26.875 29.3774 26.875L25.6274 28.125L22.5024 21.875" stroke="#413C3C" stroke-width="0.8" stroke-linecap="round" stroke-linejoin="round"/>
</svg>
