<svg width="201" height="18" viewBox="0 0 201 18" fill="none" xmlns="http://www.w3.org/2000/svg">
<line x1="40.5" y1="0.5" x2="40.5" y2="17.5" stroke="#DBD7D2" stroke-linecap="round"/>
<line x1="35.5" y1="0.5" x2="35.5" y2="7.5" stroke="#DBD7D2" stroke-linecap="round"/>
<line x1="30.5" y1="0.5" x2="30.5" y2="9.5" stroke="#DBD7D2" stroke-linecap="round"/>
<line x1="25.5" y1="0.5" x2="25.5" y2="7.5" stroke="#DBD7D2" stroke-linecap="round"/>
<line x1="20.5" y1="0.5" x2="20.5" y2="17.5" stroke="#DBD7D2" stroke-linecap="round"/>
<line x1="15.5" y1="0.5" x2="15.5" y2="7.5" stroke="#DBD7D2" stroke-linecap="round"/>
<line x1="10.5" y1="0.5" x2="10.5" y2="9.5" stroke="#DBD7D2" stroke-linecap="round"/>
<line x1="5.5" y1="0.5" x2="5.5" y2="7.5" stroke="#DBD7D2" stroke-linecap="round"/>
<line x1="0.5" y1="0.5" x2="0.5" y2="17.5" stroke="#DBD7D2" stroke-linecap="round"/>
<line x1="80.5" y1="0.5" x2="80.5" y2="17.5" stroke="#DBD7D2" stroke-linecap="round"/>
<line x1="75.5" y1="0.5" x2="75.5" y2="7.5" stroke="#DBD7D2" stroke-linecap="round"/>
<line x1="70.5" y1="0.5" x2="70.5" y2="9.5" stroke="#DBD7D2" stroke-linecap="round"/>
<line x1="65.5" y1="0.5" x2="65.5" y2="7.5" stroke="#DBD7D2" stroke-linecap="round"/>
<line x1="60.5" y1="0.5" x2="60.5" y2="17.5" stroke="#DBD7D2" stroke-linecap="round"/>
<line x1="55.5" y1="0.5" x2="55.5" y2="7.5" stroke="#DBD7D2" stroke-linecap="round"/>
<line x1="50.5" y1="0.5" x2="50.5" y2="9.5" stroke="#DBD7D2" stroke-linecap="round"/>
<line x1="45.5" y1="0.5" x2="45.5" y2="7.5" stroke="#DBD7D2" stroke-linecap="round"/>
<line x1="40.5" y1="0.5" x2="40.5" y2="17.5" stroke="#DBD7D2" stroke-linecap="round"/>
<line x1="120.5" y1="0.5" x2="120.5" y2="17.5" stroke="#DBD7D2" stroke-linecap="round"/>
<line x1="115.5" y1="0.5" x2="115.5" y2="7.5" stroke="#DBD7D2" stroke-linecap="round"/>
<line x1="110.5" y1="0.5" x2="110.5" y2="9.5" stroke="#DBD7D2" stroke-linecap="round"/>
<line x1="105.5" y1="0.5" x2="105.5" y2="7.5" stroke="#DBD7D2" stroke-linecap="round"/>
<line x1="100.5" y1="0.5" x2="100.5" y2="17.5" stroke="#DBD7D2" stroke-linecap="round"/>
<line x1="95.5" y1="0.5" x2="95.5" y2="7.5" stroke="#DBD7D2" stroke-linecap="round"/>
<line x1="90.5" y1="0.5" x2="90.5" y2="9.5" stroke="#DBD7D2" stroke-linecap="round"/>
<line x1="85.5" y1="0.5" x2="85.5" y2="7.5" stroke="#DBD7D2" stroke-linecap="round"/>
<line x1="80.5" y1="0.5" x2="80.5" y2="17.5" stroke="#DBD7D2" stroke-linecap="round"/>
<line x1="160.5" y1="0.5" x2="160.5" y2="17.5" stroke="#DBD7D2" stroke-linecap="round"/>
<line x1="155.5" y1="0.5" x2="155.5" y2="7.5" stroke="#DBD7D2" stroke-linecap="round"/>
<line x1="150.5" y1="0.5" x2="150.5" y2="9.5" stroke="#DBD7D2" stroke-linecap="round"/>
<line x1="145.5" y1="0.5" x2="145.5" y2="7.5" stroke="#DBD7D2" stroke-linecap="round"/>
<line x1="140.5" y1="0.5" x2="140.5" y2="17.5" stroke="#DBD7D2" stroke-linecap="round"/>
<line x1="135.5" y1="0.5" x2="135.5" y2="7.5" stroke="#DBD7D2" stroke-linecap="round"/>
<line x1="130.5" y1="0.5" x2="130.5" y2="9.5" stroke="#DBD7D2" stroke-linecap="round"/>
<line x1="125.5" y1="0.5" x2="125.5" y2="7.5" stroke="#DBD7D2" stroke-linecap="round"/>
<line x1="120.5" y1="0.5" x2="120.5" y2="17.5" stroke="#DBD7D2" stroke-linecap="round"/>
<line x1="200.5" y1="0.5" x2="200.5" y2="17.5" stroke="#DBD7D2" stroke-linecap="round"/>
<line x1="195.5" y1="0.5" x2="195.5" y2="7.5" stroke="#DBD7D2" stroke-linecap="round"/>
<line x1="190.5" y1="0.5" x2="190.5" y2="9.5" stroke="#DBD7D2" stroke-linecap="round"/>
<line x1="185.5" y1="0.5" x2="185.5" y2="7.5" stroke="#DBD7D2" stroke-linecap="round"/>
<line x1="180.5" y1="0.5" x2="180.5" y2="17.5" stroke="#DBD7D2" stroke-linecap="round"/>
<line x1="175.5" y1="0.5" x2="175.5" y2="7.5" stroke="#DBD7D2" stroke-linecap="round"/>
<line x1="170.5" y1="0.5" x2="170.5" y2="9.5" stroke="#DBD7D2" stroke-linecap="round"/>
<line x1="165.5" y1="0.5" x2="165.5" y2="7.5" stroke="#DBD7D2" stroke-linecap="round"/>
<line x1="160.5" y1="0.5" x2="160.5" y2="17.5" stroke="#DBD7D2" stroke-linecap="round"/>
</svg>
