<svg width="31" height="30" viewBox="0 0 31 30" fill="none" xmlns="http://www.w3.org/2000/svg">
<path d="M9.14258 26.6133V28.7492H11.8125V26.6133" stroke="#DBD7D2" stroke-width="0.8" stroke-linecap="round" stroke-linejoin="round"/>
<path d="M19.2891 26.6133V28.7492H21.959V26.6133" stroke="#DBD7D2" stroke-width="0.8" stroke-linecap="round" stroke-linejoin="round"/>
<path d="M9.03921 3.46094C9.03921 3.46094 8.69685 10.87 8.62865 12.6916C8.40727 18.6052 8.9851 26.6125 8.9851 26.6125H12.294C12.294 26.6125 12.7432 20.5317 13.7118 16.7068C14.3516 14.1805 15.5012 11.5379 15.5012 11.5379" stroke="#DBD7D2" stroke-width="0.8" stroke-linecap="round" stroke-linejoin="round"/>
<path d="M22.078 3.46094C22.078 3.46094 22.4203 10.87 22.4885 12.6916C22.7099 18.6052 22.1321 26.6125 22.1321 26.6125H18.8231C18.8231 26.6125 18.3739 20.5317 17.4054 16.7068C16.7656 14.1805 15.5011 11.5379 15.5011 11.5379" stroke="#DBD7D2" stroke-width="0.8" stroke-linecap="round" stroke-linejoin="round"/>
<path d="M9.00977 3.25254C9.00977 3.25254 12.9947 3.51955 15.5515 3.51953C18.108 3.51951 22.0923 3.25254 22.0923 3.25254" stroke="#DBD7D2" stroke-width="0.8" stroke-linecap="round" stroke-linejoin="round"/>
<path d="M14.3477 8.07812L15.1169 3.69351H15.8861L16.6553 8.07812" stroke="#DBD7D2" stroke-width="0.8" stroke-linecap="round"/>
<path d="M9.00781 3.25195V1.52119C9.00781 1.52119 12.9922 1.5212 15.5491 1.52119C18.1055 1.52118 22.0903 1.52119 22.0903 1.52119V3.25195" stroke="#DBD7D2" stroke-width="0.8" stroke-linecap="round" stroke-linejoin="round"/>
</svg>
