<svg width="31" height="30" viewBox="0 0 31 30" fill="none" xmlns="http://www.w3.org/2000/svg">
<path d="M13.6599 16.7079C14.2997 14.1816 15.551 11.2797 15.551 11.2797C15.551 11.2797 16.7638 14.5385 17.2304 16.7079C18.0391 20.4679 18.9612 26.5389 18.9612 26.5389V28.8469H21.9727V26.6136L22.4227 11.5389L21.8458 1.1543H9.15347C9.15347 1.1543 8.64405 9.7173 8.57585 11.5389C8.35447 17.4525 8.9332 26.6136 8.9332 26.6136L9.15347 28.8466H12.0381V26.5389C12.0381 26.5389 12.6913 20.5328 13.6599 16.7079Z" fill="#DBD7D2"/>
<path d="M9.14258 26.6133V28.7492H11.8125V26.6133" stroke="#413C3C" stroke-width="0.8" stroke-linecap="round" stroke-linejoin="round"/>
<path d="M19.2891 26.6133V28.7492H21.959V26.6133" stroke="#413C3C" stroke-width="0.8" stroke-linecap="round" stroke-linejoin="round"/>
<path d="M9.03824 3.46289C9.03824 3.46289 8.69587 10.872 8.62767 12.6936C8.40629 18.6072 8.98413 26.6145 8.98413 26.6145H12.2931C12.2931 26.6145 12.7423 20.5337 13.7108 16.7088C14.3506 14.1825 15.5002 11.5398 15.5002 11.5398" stroke="#413C3C" stroke-width="0.8" stroke-linecap="round" stroke-linejoin="round"/>
<path d="M22.077 3.46289C22.077 3.46289 22.4194 10.872 22.4876 12.6936C22.7089 18.6072 22.1311 26.6145 22.1311 26.6145H18.8222C18.8222 26.6145 18.373 20.5337 17.4044 16.7088C16.7647 14.1825 15.5001 11.5398 15.5001 11.5398" stroke="#413C3C" stroke-width="0.8" stroke-linecap="round" stroke-linejoin="round"/>
<path d="M9.00781 3.25254C9.00781 3.25254 12.9927 3.51955 15.5496 3.51953C18.106 3.51951 22.0903 3.25254 22.0903 3.25254" stroke="#413C3C" stroke-width="0.8" stroke-linecap="round" stroke-linejoin="round"/>
<path d="M14.3467 8.07812L15.1159 3.69351H15.8851L16.6544 8.07812" stroke="#413C3C" stroke-width="0.8" stroke-linecap="round"/>
<path d="M9.00781 3.25195V1.52119C9.00781 1.52119 12.9922 1.5212 15.5491 1.52119C18.1055 1.52118 22.0903 1.52119 22.0903 1.52119V3.25195" stroke="#413C3C" stroke-width="0.8" stroke-linecap="round" stroke-linejoin="round"/>
</svg>
