<svg width="31" height="30" viewBox="0 0 31 30" fill="none" xmlns="http://www.w3.org/2000/svg">
<path d="M7.9997 2.88537L11.7497 2.5C11.7497 2.5 12.3747 5.625 15.4997 5.625C18.6247 5.625 19.2497 2.5 19.2497 2.5L22.9997 2.88537L25.3074 4.61614L28.7689 13.6161L23.3458 16.1546V27.6931H7.65354V16.1546L2.23047 13.6161L5.69201 4.8469L7.9997 2.88537Z" fill="#DBD7D2"/>
<path d="M7.6 3.38755C7.6 3.20212 7.72743 3.04101 7.90787 2.9983L11.6579 2.11075C11.7635 2.08576 11.8747 2.10474 11.966 2.16335C12.0571 2.2218 12.1206 2.31468 12.1421 2.42075C12.1421 2.4209 12.1421 2.42105 12.1422 2.4212C12.1422 2.42121 12.1422 2.42122 12.1422 2.42122C12.1422 2.42133 12.1422 2.42144 12.1422 2.42155L7.6 3.38755ZM7.6 3.38755V27.5C7.6 27.7209 7.77909 27.9 8 27.9H23C23.2209 27.9 23.4 27.7209 23.4 27.5V3.38755C23.4 3.20212 23.2726 3.04101 23.0921 2.9983L19.3421 2.11075C19.2365 2.08576 19.1253 2.10474 19.034 2.16335M7.6 3.38755L19.034 2.16335M19.034 2.16335C18.9427 2.22189 18.8792 2.31495 18.8578 2.42122M19.034 2.16335L18.8578 2.42122M18.8578 2.42122L18.8578 2.42155M18.8578 2.42122L18.8578 2.42155M18.8578 2.42155L18.8571 2.42446L18.8527 2.4442C18.8484 2.46272 18.8413 2.49165 18.831 2.5295C18.8104 2.60528 18.7772 2.71624 18.728 2.85058C18.629 3.12044 18.4677 3.47802 18.2192 3.83311C17.7285 4.53415 16.9025 5.225 15.5 5.225C14.0975 5.225 13.2715 4.53415 12.7808 3.83311C12.5323 3.47802 12.371 3.12044 12.272 2.85058C12.2228 2.71624 12.1896 2.60528 12.169 2.5295C12.1587 2.49165 12.1516 2.46272 12.1473 2.4442L12.1429 2.42446L12.1422 2.42122L18.8578 2.42155Z" stroke="#413C3C" stroke-width="0.8" stroke-linejoin="round"/>
<path d="M25.5252 4.69161C25.5794 4.73634 25.6208 4.79456 25.6454 4.86039L28.7694 13.2482C28.8451 13.4514 28.7451 13.6779 28.544 13.7589L23.9057 15.626C23.7824 15.6756 23.6425 15.6608 23.5324 15.5864C23.4223 15.5121 23.3563 15.3879 23.3563 15.255L23.3557 3.74877C23.3557 3.59387 23.4451 3.4529 23.5853 3.38689C23.7254 3.32088 23.891 3.34171 24.0105 3.44036L25.5252 4.69161Z" stroke="#413C3C" stroke-width="0.8" stroke-linejoin="round"/>
<path d="M5.47475 4.69161C5.42059 4.73634 5.37917 4.79456 5.35465 4.86039L2.23055 13.2482C2.15487 13.4514 2.25488 13.6779 2.45603 13.7589L7.09434 15.626C7.21761 15.6756 7.35747 15.6608 7.46759 15.5864C7.57771 15.5121 7.6437 15.3879 7.64371 15.255L7.64428 3.74877C7.64429 3.59387 7.55487 3.4529 7.41474 3.38689C7.27461 3.32088 7.10897 3.34171 6.98954 3.44036L5.47475 4.69161Z" stroke="#413C3C" stroke-width="0.8" stroke-linejoin="round"/>
</svg>
