<svg width="26" height="26" viewBox="0 0 26 26" fill="none" xmlns="http://www.w3.org/2000/svg">
<path d="M22.7493 18.416H3.24935C2.65104 18.416 2.16602 18.901 2.16602 19.4993V22.7493C2.16602 23.3477 2.65104 23.8327 3.24935 23.8327H22.7493C23.3477 23.8327 23.8327 23.3477 23.8327 22.7493V19.4993C23.8327 18.901 23.3477 18.416 22.7493 18.416Z" stroke="white" stroke-width="0.8" stroke-linecap="round" stroke-linejoin="round"/>
<path d="M8.125 13V18.4167M13 13V18.4167M17.875 13V18.4167" stroke="white" stroke-width="0.8" stroke-linecap="round" stroke-linejoin="round" stroke-dasharray="1.2 1.2"/>
<path d="M12.9987 6.49935C14.1953 6.49935 15.1654 5.5293 15.1654 4.33268C15.1654 3.13607 14.1953 2.16602 12.9987 2.16602C11.8021 2.16602 10.832 3.13607 10.832 4.33268C10.832 5.5293 11.8021 6.49935 12.9987 6.49935Z" stroke="white" stroke-width="0.8" stroke-linejoin="round"/>
<path d="M4.33203 18.4167C4.33203 13.9479 4.8737 6.5 12.9987 6.5C21.1237 6.5 21.6654 13.9479 21.6654 18.4167" stroke="white" stroke-width="0.8" stroke-linejoin="round"/>
</svg>
