<svg width="26" height="26" viewBox="0 0 26 26" fill="none" xmlns="http://www.w3.org/2000/svg">
<path d="M7.49023 23.0645L7.49023 24.9156H9.80415V23.0645" stroke="white" stroke-width="0.8" stroke-linecap="round" stroke-linejoin="round"/>
<path d="M16.2832 23.0645V24.9156H18.5971V23.0645" stroke="white" stroke-width="0.8" stroke-linecap="round" stroke-linejoin="round"/>
<path d="M10.7306 3.39648C10.7306 3.39648 10.5679 4.71011 9.76585 5.38989C9.11732 5.93957 7.57954 5.89489 7.57954 5.89489C7.57954 5.89489 7.42001 8.35613 7.3609 9.93486C7.16904 15.0599 7.3091 23.0648 7.3091 23.0648H10.1769C10.1769 23.0648 10.5662 17.7947 11.4056 14.4798C11.96 12.2904 13.0446 9.77539 13.0446 9.77539" stroke="white" stroke-width="0.8" stroke-linecap="round" stroke-linejoin="round"/>
<path d="M15.3592 3.39648C15.3592 3.39648 15.5219 4.71011 16.324 5.38989C16.9725 5.93957 18.5103 5.89489 18.5103 5.89489C18.5103 5.89489 18.6698 8.35613 18.7289 9.93486C18.9208 15.0599 18.7807 23.0648 18.7807 23.0648H15.913C15.913 23.0648 15.5237 17.7947 14.6843 14.4798C14.1298 12.2904 13.0453 9.77539 13.0453 9.77539" stroke="white" stroke-width="0.8" stroke-linecap="round" stroke-linejoin="round"/>
<path d="M7.375 6.28906L7.375 2.81819C7.375 2.81819 10.8286 3.0496 13.0445 3.04958C15.2601 3.04957 18.7132 2.81819 18.7132 2.81819V6.28906" stroke="white" stroke-width="0.8" stroke-linecap="round" stroke-linejoin="round"/>
<path d="M7.375 2.81836V1.08292C7.375 1.08292 10.8282 1.08293 13.0441 1.08292C15.2597 1.08291 18.7132 1.08292 18.7132 1.08292V2.81836" stroke="white" stroke-width="0.8" stroke-linecap="round" stroke-linejoin="round"/>
</svg>
