<svg width="26" height="26" viewBox="0 0 26 26" fill="none" xmlns="http://www.w3.org/2000/svg">
<path d="M6.5 9.75L6.5 22.75L19.5 22.75L19.5 9.75" stroke="white" stroke-width="0.8"/>
<path d="M11.375 11.916L12.4583 6.49935L13.5417 6.49935L14.625 11.916" stroke="white" stroke-width="0.8"/>
<path d="M16.9026 1.89945C17.81 2.44485 18.4811 3.16778 19.0981 3.9294C19.0878 4.28586 19.0356 4.56559 18.9228 4.79461C18.8014 5.04133 18.5915 5.26562 18.1991 5.45957C17.3765 5.86604 15.8402 6.09935 13 6.09935C11.5458 6.09935 10.4272 6.04245 9.56746 5.93182C8.70415 5.82074 8.12565 5.65823 7.73702 5.46135C7.36026 5.27049 7.16755 5.05078 7.05765 4.80692C6.95371 4.57628 6.90992 4.29395 6.90153 3.92989C7.5186 3.16809 8.18981 2.44497 9.09737 1.89945C10.0426 1.33127 11.27 0.941016 13 0.941016C14.73 0.941016 15.9573 1.33127 16.9026 1.89945Z" stroke="white" stroke-width="0.8" stroke-linejoin="round"/>
<path d="M10.1855 4.44059C10.1855 4.44059 10.8351 3.79102 13.0018 3.79102C15.1685 3.79102 15.8189 4.44059 15.8189 4.44059" stroke="white" stroke-width="0.8" stroke-linecap="round"/>
<path d="M8.12524 5.95758C8.12524 5.95758 6.43187 6.36087 5.46895 7.60748C4.50603 8.85409 0.541829 23.291 0.541829 23.291L3.79183 24.3743L6.50016 18.9577" stroke="white" stroke-width="0.8" stroke-linecap="round" stroke-linejoin="round"/>
<path d="M17.8787 5.95758C17.8787 5.95758 19.572 6.36087 20.535 7.60748C21.4979 8.85409 25.4621 23.291 25.4621 23.291L22.2121 24.3743L19.5037 18.9577" stroke="white" stroke-width="0.8" stroke-linecap="round" stroke-linejoin="round"/>
</svg>
