<svg width="40" height="40" viewBox="0 0 40 40" fill="none" xmlns="http://www.w3.org/2000/svg">
<g clip-path="url(#clip0_788_2001)">
<path fill-rule="evenodd" clip-rule="evenodd" d="M30.0829 7.62022C30.0964 7.6195 30.1099 7.61914 30.1234 7.61914C30.7748 7.61914 31.3654 7.94699 31.7037 8.54566C32.0257 9.11546 32.0768 9.84719 31.9002 10.6425L28.1678 29.9981C28.0224 30.7641 27.6974 31.4933 27.0209 31.8292C26.3204 32.1771 25.5702 31.9484 24.9591 31.5735C24.9305 31.5559 24.9031 31.5365 24.8771 31.5154L15.971 24.2783C15.8417 24.1748 15.7425 24.0445 15.676 23.9019C15.6086 23.7575 15.575 23.6013 15.575 23.4453C15.575 23.2894 15.6086 23.1331 15.676 22.9887C15.7357 22.8607 15.8218 22.7425 15.9324 22.6447L22.598 16.0218L13.5464 22.305C13.411 22.4007 13.2525 22.4653 13.0823 22.4887C12.9133 22.5119 12.7427 22.4932 12.5843 22.4358L7.11669 20.5334C6.43239 20.3116 5.63256 19.785 5.72096 18.855C5.76076 18.4364 5.98689 18.0895 6.25969 17.8257C6.53478 17.5597 6.89971 17.3345 7.3269 17.1469L7.33556 17.1431L29.2438 7.84553C29.5048 7.71324 29.7898 7.63581 30.0829 7.62022ZM30.1429 9.14338C30.0693 9.1501 29.995 9.17172 29.9235 9.2095C29.9045 9.2195 29.8852 9.22869 29.8654 9.23706L7.93539 18.544C7.61873 18.6835 7.42516 18.8184 7.31898 18.9211C7.30789 18.9318 7.29816 18.9418 7.28964 18.9509C7.34824 18.9891 7.4439 19.0381 7.59128 19.0853L7.60926 19.0911L12.8679 20.921L25.5962 12.0857C25.8193 11.9362 26.0559 11.832 26.2889 11.7791C26.5068 11.7295 26.7855 11.7111 27.0545 11.8128C27.1953 11.8661 27.3577 11.9625 27.4846 12.1295C27.6179 12.3047 27.6779 12.5137 27.6702 12.7203C27.6564 13.09 27.437 13.3643 27.2713 13.5266L17.3217 23.4124L25.7965 30.299C26.1985 30.5358 26.3394 30.4663 26.3432 30.4644C26.371 30.4507 26.5548 30.3252 26.6706 29.7143L26.6711 29.7119L30.4104 10.3202C30.5385 9.75028 30.455 9.4334 30.377 9.29534C30.3175 9.18999 30.2443 9.148 30.1429 9.14338Z" fill="#A9A1A1"/>
<path d="M25.8533 0H14.1657C2.91429 0 0 2.90857 0 14.1467V25.8343C0 37.0876 2.90857 40 14.1467 40H25.8343C37.0876 40 40 37.0914 40 25.8533V14.1657C40 2.91238 37.0914 0 25.8533 0ZM38.0952 25.8533C38.0952 36.0362 36.0324 38.0952 25.8324 38.0952H14.1486C3.96191 38.0952 1.90476 36.0324 1.90476 25.8324V14.1486C1.90476 3.96191 3.96762 1.90476 14.1676 1.90476H25.8533C36.0362 1.90476 38.0952 3.96762 38.0952 14.1676V25.8533Z" fill="#A9A1A1"/>
</g>
<defs>
<clipPath id="clip0_788_2001">
<rect width="40" height="40" fill="white"/>
</clipPath>
</defs>
</svg>
