<svg width="40" height="40" viewBox="0 0 40 40" fill="none" xmlns="http://www.w3.org/2000/svg">
<g clip-path="url(#clip0_792_1970)">
<path d="M25.8533 0H14.1657C2.91429 0 0 2.90857 0 14.1467V25.8343C0 37.0876 2.90857 40 14.1467 40H25.8343C37.0876 40 40 37.0914 40 25.8533V14.1657C40 2.91238 37.0914 0 25.8533 0ZM38.0952 25.8533C38.0952 36.0362 36.0324 38.0952 25.8324 38.0952H14.1486C3.96191 38.0952 1.90476 36.0324 1.90476 25.8324V14.1486C1.90476 3.96191 3.96762 1.90476 14.1676 1.90476H25.8533C36.0362 1.90476 38.0952 3.96762 38.0952 14.1676V25.8533Z" fill="#A9A1A1"/>
<path d="M26.4286 23.5562C25.5904 22.6557 24.5867 21.925 23.4724 21.4038C25.0571 20.4273 26.4315 19.1451 27.5156 17.632C28.5997 16.1188 29.3717 14.405 29.7867 12.5905C29.8186 12.467 29.8254 12.3383 29.8067 12.2121C29.788 12.0859 29.7441 11.9648 29.6776 11.8559C29.6112 11.747 29.5235 11.6525 29.4199 11.5782C29.3162 11.5038 29.1987 11.451 29.0743 11.4229C28.9498 11.3948 28.821 11.392 28.6955 11.4147C28.5699 11.4374 28.4502 11.485 28.3434 11.5548C28.2367 11.6247 28.145 11.7152 28.0739 11.8211C28.0028 11.927 27.9537 12.0462 27.9295 12.1714C27.5065 14.0294 26.6514 15.7614 25.4335 17.2269C24.2156 18.6924 22.6692 19.85 20.92 20.6057C20.7124 20.5714 20.501 20.5619 20.2933 20.541C20.2933 20.541 20.2933 13.2293 20.2933 12.3848C20.2933 11.5402 19.619 11.4286 19.3333 11.4286C19.0476 11.4286 18.381 11.5086 18.381 12.3848V13.3333V23.7333C18.381 23.7467 18.3886 23.7581 18.3886 23.7714V25.6724C14.3335 22.2349 11.629 17.4706 10.7562 12.2267C10.7097 11.9799 10.5694 11.7608 10.3649 11.6152C10.1604 11.4696 9.9074 11.4089 9.65905 11.4457C9.41001 11.4877 9.18784 11.6268 9.04139 11.8326C8.89493 12.0383 8.8362 12.2938 8.87809 12.5429C9.95034 18.9298 13.5125 24.6306 18.7829 28.3943C18.8019 28.4076 18.8248 28.4019 18.8419 28.4133C18.9892 28.5143 19.1625 28.5705 19.341 28.5752C19.4811 28.5735 19.6191 28.5403 19.7448 28.4781L19.7752 28.4705C19.7943 28.461 19.8057 28.4362 19.8248 28.4248C19.9687 28.3395 20.0872 28.2172 20.1676 28.0705C20.2468 27.9344 20.2901 27.7803 20.2933 27.6229V22.4038C22.1102 22.6311 23.7875 23.4958 25.0267 24.8438L28.1638 28.2667C28.3346 28.4526 28.5722 28.563 28.8244 28.5737C28.9492 28.5791 29.0739 28.5597 29.1913 28.5168C29.3087 28.4739 29.4165 28.4084 29.5086 28.3238C29.6006 28.2393 29.6751 28.1374 29.7278 28.0241C29.7805 27.9107 29.8103 27.7881 29.8157 27.6633C29.821 27.5384 29.8016 27.4137 29.7587 27.2963C29.7158 27.1789 29.6503 27.0711 29.5657 26.979L26.4286 23.5562Z" fill="#A9A1A1"/>
</g>
<defs>
<clipPath id="clip0_792_1970">
<rect width="40" height="40" fill="white"/>
</clipPath>
</defs>
</svg>
