<svg width="24" height="25" viewBox="0 0 24 25" fill="none" xmlns="http://www.w3.org/2000/svg">
<g id="account">
<g id="Group">
<g id="Vector">
<mask id="path-1-inside-1_392_1401" fill="white">
<path d="M11.9155 13.2334C15.4318 13.2334 18.2823 10.383 18.2823 6.86671C18.2823 3.35047 15.4318 0.5 11.9155 0.5C8.3993 0.5 5.54883 3.35047 5.54883 6.86671C5.54883 10.383 8.3993 13.2334 11.9155 13.2334Z"/>
</mask>
<path d="M11.9155 13.2334C15.4318 13.2334 18.2823 10.383 18.2823 6.86671C18.2823 3.35047 15.4318 0.5 11.9155 0.5C8.3993 0.5 5.54883 3.35047 5.54883 6.86671C5.54883 10.383 8.3993 13.2334 11.9155 13.2334Z" stroke="#685F5F" stroke-width="3" mask="url(#path-1-inside-1_392_1401)"/>
</g>
<g id="Vector_2">
<mask id="path-2-inside-2_392_1401" fill="white">
<path d="M20.9891 21.7818C20.3274 23.0325 19.0869 23.7793 17.6721 23.7793H6.15816C4.7442 23.7793 3.50523 23.0325 2.84278 21.7826C2.18033 20.5311 2.26001 19.0859 3.09432 17.8579C3.93176 16.6259 5.18948 15.783 6.63625 15.4854C8.3619 15.1307 10.1383 14.951 11.9155 14.951C13.6928 14.951 15.4692 15.1307 17.1948 15.4854C18.6408 15.783 19.8993 16.6267 20.7391 17.8618L20.7766 17.9165C21.5719 19.0867 21.6515 20.5311 20.9891 21.7818V21.7818Z"/>
</mask>
<path d="M20.9891 21.7818C20.3274 23.0325 19.0869 23.7793 17.6721 23.7793H6.15816C4.7442 23.7793 3.50523 23.0325 2.84278 21.7826C2.18033 20.5311 2.26001 19.0859 3.09432 17.8579C3.93176 16.6259 5.18948 15.783 6.63625 15.4854C8.3619 15.1307 10.1383 14.951 11.9155 14.951C13.6928 14.951 15.4692 15.1307 17.1948 15.4854C18.6408 15.783 19.8993 16.6267 20.7391 17.8618L20.7766 17.9165C21.5719 19.0867 21.6515 20.5311 20.9891 21.7818V21.7818Z" stroke="#685F5F" stroke-width="3" mask="url(#path-2-inside-2_392_1401)"/>
</g>
</g>
</g>
</svg>
