<svg width="24" height="25" viewBox="0 0 24 25" fill="none" xmlns="http://www.w3.org/2000/svg">
<path d="M18.8344 8.10714L18.8358 8.10714C18.8475 8.10712 18.8621 8.11087 18.8784 8.12678C18.895 8.14298 18.9098 8.16914 18.9121 8.2054C18.9121 8.20567 18.9121 8.20594 18.9121 8.2062L19.6475 21.8233L19.6475 21.8239C19.6495 21.8599 19.6505 21.8956 19.6504 21.9311L19.6504 21.9315C19.6488 22.9635 18.8478 23.7516 17.9183 23.75H17.917L4.88381 23.75L4.88215 23.75C4.84951 23.7501 4.81662 23.7491 4.78356 23.7472L4.78341 23.7472C3.85377 23.6924 3.0969 22.855 3.15332 21.8238L3.15338 21.8228L3.88047 8.20621C3.88049 8.20588 3.88051 8.20555 3.88053 8.20523C3.88286 8.16906 3.89757 8.14296 3.91417 8.12678C3.93049 8.11087 3.94506 8.10712 3.95681 8.10714H3.95818H7.26401H8.01401V7.35714V4.78571C8.01401 2.80697 9.55384 1.25 11.3963 1.25C13.2388 1.25 14.7786 2.80697 14.7786 4.78571V7.35714V8.10714H15.5286L18.8344 8.10714ZM13.8757 8.10714H14.6257V7.35714V4.78571C14.6257 2.97733 13.2054 1.46429 11.3963 1.46429C9.58721 1.46429 8.16692 2.97733 8.16692 4.78571V7.35714V8.10714H8.91692H13.8757Z" stroke="#685F5F" stroke-width="1.5"/>
</svg>
