<svg width="12" height="9" viewBox="0 0 12 9" fill="none" xmlns="http://www.w3.org/2000/svg">
<path d="M4.42678 7.87041L0.588488 4.36845C0.5282 4.30416 0.496696 4.22146 0.500274 4.13687C0.503851 4.05229 0.542246 3.97205 0.607785 3.9122C0.673325 3.85235 0.761182 3.81728 0.8538 3.81402C0.946418 3.81075 1.03698 3.83952 1.10738 3.89458L4.41942 6.9193L10.8926 1.01437C10.963 0.95931 11.0536 0.930539 11.1462 0.933806C11.2388 0.937073 11.3267 0.972137 11.3922 1.03199C11.4578 1.09185 11.4961 1.17208 11.4997 1.25666C11.5033 1.34125 11.4718 1.42395 11.4115 1.48824L4.42678 7.87041Z" fill="white"/>
<path fill-rule="evenodd" clip-rule="evenodd" d="M10.5577 0.692423C10.7227 0.563373 10.94 0.49262 11.1665 0.500611C11.3929 0.508597 11.6024 0.594282 11.7548 0.733469C11.9065 0.872031 11.9915 1.05361 11.9994 1.24077C12.0073 1.42791 11.938 1.61403 11.7995 1.76176L11.7874 1.77464L4.42705 8.5L0.212742 4.65498L0.200547 4.64197C0.0620134 4.49424 -0.00730528 4.30812 0.000609388 4.12098C0.00852566 3.93382 0.093465 3.75224 0.24519 3.61368C0.397599 3.47449 0.607072 3.38881 0.833477 3.38082C1.06 3.37283 1.27725 3.44358 1.44226 3.57263L1.45664 3.58388L4.41962 6.28983L10.5435 0.703586L10.5577 0.692423Z" fill="white"/>
</svg>
