<svg width="24" height="24" viewBox="0 0 24 24" fill="none" xmlns="http://www.w3.org/2000/svg">
<g clip-path="url(#clip0_328_938)">
<path fill-rule="evenodd" clip-rule="evenodd" d="M12.5868 22.4924C12.7729 22.4153 12.9418 22.302 13.0839 22.1593L21.8752 13.3759C22.6916 12.5581 23.3013 11.5577 23.6537 10.4575C24.0061 9.35738 24.0911 8.18915 23.9017 7.04962C23.7122 5.91008 23.2538 4.83206 22.5644 3.90484C21.8752 2.9778 20.9748 2.22819 19.938 1.71804C18.6293 1.06532 17.1524 0.827407 15.7048 1.03611C14.3297 1.23435 13.0433 1.82658 12.0001 2.73885C10.9574 1.82558 9.67087 1.2327 8.29547 1.03441C6.84754 0.825668 5.37034 1.06422 4.06191 1.71808C3.02511 2.22822 2.12481 2.97782 1.43557 3.90484C0.74617 4.83206 0.28777 5.91008 0.0983488 7.04962C-0.0910721 8.18915 -0.0060594 9.35738 0.346342 10.4575C0.698743 11.5577 1.30854 12.5582 2.12491 13.376L10.9083 22.1595C11.0515 22.3033 11.2219 22.4171 11.4096 22.4942C11.5971 22.5713 11.798 22.6103 12.0007 22.6089C12.2019 22.609 12.401 22.5694 12.5868 22.4924ZM4.87824 3.31533C4.08595 3.70802 3.39897 4.28409 2.87445 4.99558C2.35007 5.70687 2.00321 6.53296 1.8627 7.40516C1.73144 8.2539 1.80173 9.12159 2.06793 9.93819C2.33417 10.7549 2.78892 11.4977 3.39545 12.1064L12.0155 20.72L20.6043 12.1066C21.211 11.4978 21.6658 10.755 21.9321 9.93819C22.1982 9.12164 22.2686 8.254 22.1373 7.40531C21.9968 6.53306 21.65 5.70691 21.1256 4.99558C20.6013 4.28443 19.9147 3.70858 19.1229 3.31589C18.0967 2.82072 16.9413 2.65801 15.8181 2.8505C14.6944 3.04306 13.659 3.58145 12.8565 4.39046L12.8541 4.39283C12.626 4.61636 12.3194 4.74155 12 4.74155C11.6806 4.74155 11.374 4.61636 11.1459 4.39283C10.0939 3.35579 8.67681 2.77121 7.19901 2.76524C6.39352 2.76077 5.59829 2.949 4.88049 3.3142L4.87824 3.31533Z" fill="#685F5F"/>
</g>
<defs>
<clipPath id="clip0_328_938">
<rect width="24" height="24" fill="white"/>
</clipPath>
</defs>
</svg>
