<svg width="30" height="27" viewBox="0 0 30 27" fill="none" xmlns="http://www.w3.org/2000/svg">
<path id="Vector" fill-rule="evenodd" clip-rule="evenodd" d="M15.7335 26.8547C15.9661 26.7584 16.1773 26.6172 16.3549 26.4392L27.3441 15.4843C28.3645 14.4643 29.1266 13.2166 29.5671 11.8444C30.0076 10.4723 30.1138 9.01523 29.8771 7.59397C29.6403 6.17271 29.0673 4.82817 28.2055 3.67172C27.344 2.51549 26.2186 1.58055 24.9225 0.944284C23.2867 0.130191 21.4405 -0.166543 19.631 0.0937565C17.9121 0.341008 16.3041 1.07965 15.0002 2.21747C13.6968 1.07841 12.0886 0.338948 10.3693 0.0916396C8.55942 -0.168712 6.71293 0.128811 5.07738 0.944328C3.78138 1.58059 2.65601 2.51552 1.79446 3.67172C0.932712 4.82817 0.359712 6.17271 0.122936 7.59397C-0.11384 9.01523 -0.00757425 10.4723 0.432928 11.8444C0.873429 13.2166 1.63567 14.4645 2.65613 15.4845L13.6354 26.4394C13.8144 26.6188 14.0274 26.7607 14.262 26.8569C14.4964 26.953 14.7475 27.0017 15.0009 27C15.2523 27.0001 15.5013 26.9507 15.7335 26.8547ZM6.0978 2.93646C5.10743 3.42624 4.24871 4.14473 3.59306 5.03212C2.93759 5.91926 2.50402 6.94959 2.32838 8.03742C2.1643 9.09599 2.25217 10.1782 2.58491 11.1967C2.91771 12.2153 3.48615 13.1417 4.24432 13.9009L15.0194 24.6441L25.7554 13.9012C26.5137 13.1419 27.0823 12.2155 27.4151 11.1967C27.7478 10.1783 27.8357 9.09612 27.6717 8.03761C27.496 6.94971 27.0625 5.91932 26.4069 5.03212C25.7516 4.14515 24.8934 3.42694 23.9036 2.93717C22.6208 2.31958 21.1767 2.11664 19.7726 2.35672C18.368 2.59688 17.0738 3.26838 16.0706 4.2774L16.0676 4.28035C15.7826 4.55915 15.3992 4.71529 15 4.71529C14.6008 4.71529 14.2174 4.55915 13.9324 4.28035C12.6174 2.98693 10.846 2.25783 8.99876 2.25038C7.9919 2.24481 6.99787 2.47957 6.10061 2.93506L6.0978 2.93646Z" fill="#685F5F"/>
</svg>
