<svg width="24" height="22" viewBox="0 0 24 22" fill="none" xmlns="http://www.w3.org/2000/svg">
<path fill-rule="evenodd" clip-rule="evenodd" d="M12.5868 21.8816C12.7729 21.8032 12.9418 21.6881 13.0839 21.5431L21.8752 12.6168C22.6916 11.7857 23.3013 10.7691 23.6537 9.65102C24.0061 8.53297 24.0911 7.34574 23.9017 6.18768C23.7122 5.02962 23.2538 3.93407 22.5644 2.99177C21.8752 2.04966 20.9748 1.28786 19.938 0.769417C18.6293 0.106081 17.1524 -0.135702 15.7048 0.0763942C14.3297 0.277858 13.0433 0.879717 12.0001 1.80682C10.9574 0.878705 9.67087 0.27618 8.29547 0.0746693C6.84754 -0.137469 5.37034 0.104957 4.06191 0.769452C3.02511 1.28789 2.12481 2.04968 1.43557 2.99177C0.74617 3.93407 0.28777 5.02962 0.0983488 6.18768C-0.0910721 7.34574 -0.0060594 8.53297 0.346342 9.65102C0.698743 10.7691 1.30854 11.7859 2.12491 12.617L10.9083 21.5432C11.0515 21.6894 11.2219 21.805 11.4096 21.8834C11.5971 21.9617 11.798 22.0014 12.0007 22C12.2019 22.0001 12.401 21.9599 12.5868 21.8816ZM4.87824 2.39267C4.08595 2.79175 3.39897 3.37718 2.87445 4.10024C2.35007 4.8231 2.00321 5.66263 1.8627 6.54901C1.73144 7.41155 1.80173 8.29335 2.06793 9.12323C2.33417 9.95325 2.78892 10.7081 3.39545 11.3267L12.0155 20.0804L20.6043 11.3269C21.211 10.7082 21.6658 9.95334 21.9321 9.12323C22.1982 8.2934 22.2686 7.41165 22.1373 6.54916C21.9968 5.66273 21.65 4.82315 21.1256 4.10024C20.6013 3.37753 19.9147 2.79232 19.1229 2.39325C18.0967 1.89002 16.9413 1.72467 15.8181 1.92029C14.6944 2.11598 13.659 2.66312 12.8565 3.48528L12.8541 3.48769C12.626 3.71486 12.3194 3.84209 12 3.84209C11.6806 3.84209 11.374 3.71486 11.1459 3.48769C10.0939 2.4338 8.67681 1.83971 7.19901 1.83365C6.39352 1.8291 5.59829 2.02039 4.88049 2.39153L4.87824 2.39267Z" fill="white"/>
</svg>
