<svg width="30" height="30" viewBox="0 0 30 30" fill="none" xmlns="http://www.w3.org/2000/svg">
<path d="M7.5 11.25L7.5 26.25L22.5 26.25L22.5 11.25" stroke="#DBD7D2" stroke-width="0.8"/>
<path d="M13.125 13.75L14.375 7.5L15.625 7.5L16.875 13.75" stroke="#DBD7D2" stroke-width="0.8" stroke-linecap="round"/>
<path d="M19.5347 2.13968C20.5979 2.77872 21.381 3.62646 22.0984 4.51362C22.088 4.94028 22.0272 5.28 21.8893 5.56017C21.7422 5.8589 21.4891 6.12665 21.0262 6.35543C20.0627 6.83155 18.2763 7.1 15 7.1C13.3208 7.1 12.0272 7.03432 11.0315 6.9062C10.0323 6.77762 9.3569 6.58892 8.89952 6.35721C8.45401 6.13152 8.22067 5.86835 8.08734 5.57248C7.96036 5.29071 7.90975 4.94843 7.9013 4.51403C8.61871 3.62672 9.40194 2.77882 10.4653 2.13968C11.5665 1.47775 12.9939 1.025 15 1.025C17.0061 1.025 18.4335 1.47775 19.5347 2.13968Z" stroke="#DBD7D2" stroke-width="0.8" stroke-linejoin="round"/>
<path d="M11.752 5.12451C11.752 5.12451 12.5015 4.375 15.0015 4.375C17.5015 4.375 18.252 5.12451 18.252 5.12451" stroke="#DBD7D2" stroke-width="0.8" stroke-linecap="round"/>
<path d="M9.37558 6.87488C9.37558 6.87488 7.42169 7.34021 6.31063 8.77861C5.19957 10.217 0.625487 26.875 0.625487 26.875L4.37549 28.125L7.50049 21.875" stroke="#DBD7D2" stroke-width="0.8" stroke-linecap="round" stroke-linejoin="round"/>
<path d="M20.6283 6.87488C20.6283 6.87488 22.5822 7.34021 23.6933 8.77861C24.8043 10.217 29.3784 26.875 29.3784 26.875L25.6284 28.125L22.5034 21.875" stroke="#DBD7D2" stroke-width="0.8" stroke-linecap="round" stroke-linejoin="round"/>
</svg>
