<svg width="26" height="26" viewBox="0 0 26 26" fill="none" xmlns="http://www.w3.org/2000/svg">
<path d="M10.1421 2.08689C10.1207 1.98077 10.0572 1.88784 9.96602 1.82936C9.87469 1.77076 9.76347 1.75178 9.65787 1.77677L6.40787 2.54598C6.22743 2.58868 6.1 2.7498 6.1 2.93522V23.8327C6.1 24.0536 6.27909 24.2327 6.5 24.2327H19.5C19.7209 24.2327 19.9 24.0536 19.9 23.8327V2.93522C19.9 2.7498 19.7726 2.58868 19.5921 2.54598L16.3421 1.77677C16.2365 1.75178 16.1253 1.77076 16.034 1.82936C15.9427 1.8879 15.8792 1.98096 15.8578 2.08723C15.8578 2.08734 15.8578 2.08746 15.8578 2.08757L15.8574 2.08928L15.8537 2.10554C15.8501 2.12101 15.8441 2.14546 15.8354 2.17761C15.8179 2.242 15.7896 2.33668 15.7475 2.45149C15.6629 2.68229 15.525 2.98779 15.3129 3.2908C14.8951 3.88766 14.1941 4.47435 13 4.47435C11.8059 4.47435 11.1049 3.88766 10.6871 3.2908C10.475 2.98779 10.3371 2.68229 10.2525 2.45149C10.2104 2.33668 10.1821 2.242 10.1646 2.17761C10.1559 2.14546 10.1499 2.12101 10.1463 2.10554L10.1426 2.08928L10.142 2.08658M10.1421 2.08689C10.1421 2.08698 10.1421 2.08707 10.1422 2.08716L10.1421 2.08695L10.1421 2.08689ZM10.1421 2.08689L10.142 2.08658M10.142 2.08658C10.142 2.08641 10.142 2.0864 10.142 2.08655L10.142 2.08658ZM15.858 2.08655L15.858 2.08658C15.858 2.08641 15.858 2.0864 15.858 2.08655Z" stroke="white" stroke-width="0.8" stroke-linejoin="round"/>
<path d="M21.7235 4.02494C21.7777 4.06968 21.8191 4.12789 21.8436 4.19372L24.5511 11.4632C24.6268 11.6664 24.5268 11.8929 24.3257 11.9739L20.3058 13.592C20.1825 13.6416 20.0427 13.6268 19.9325 13.5524C19.8224 13.4781 19.7564 13.3539 19.7564 13.221L19.7559 3.24894C19.7559 3.09404 19.8453 2.95306 19.9855 2.88705C20.1256 2.82105 20.2912 2.84188 20.4107 2.94052L21.7235 4.02494Z" stroke="white" stroke-width="0.8" stroke-linejoin="round"/>
<path d="M4.27846 4.02494C4.2243 4.06968 4.18288 4.12789 4.15836 4.19372L1.45081 11.4632C1.37513 11.6664 1.47513 11.8929 1.67629 11.9739L5.69616 13.592C5.81942 13.6416 5.95929 13.6268 6.0694 13.5524C6.17952 13.4781 6.24552 13.3539 6.24552 13.221L6.24602 3.24894C6.24603 3.09404 6.15661 2.95306 6.01648 2.88705C5.87635 2.82105 5.71071 2.84188 5.59128 2.94052L4.27846 4.02494Z" stroke="white" stroke-width="0.8" stroke-linejoin="round"/>
</svg>
