<svg width="89" height="31" viewBox="0 0 89 31" fill="none" xmlns="http://www.w3.org/2000/svg">
<path d="M7.71138 4.796C3.49938 4.796 0.0793751 8.216 0.0793751 12.428V18.368C0.0793751 22.58 3.49938 26 7.71138 26H13.6514C17.8634 26 21.2834 22.58 21.2834 18.368C21.2834 12.464 21.2834 6.632 21.2834 0.763999H14.6954C14.6954 6.632 14.6954 12.5 14.6954 18.368C14.6954 18.944 14.2274 19.412 13.6514 19.412H7.71138C7.13538 19.412 6.66738 18.944 6.66738 18.368V12.428C6.66738 11.852 7.13538 11.384 7.71138 11.384H13.6514V4.796H7.71138ZM43.492 13.868C45.184 8.468 40.936 4.796 36.256 4.796H30.352C26.14 4.796 22.72 8.216 22.72 12.428V18.368C22.72 22.58 26.14 26 30.352 26C34.852 26 39.352 26 43.816 26V19.412C39.352 19.412 34.852 19.412 30.352 19.412C29.776 19.412 29.308 18.944 29.308 18.368V12.428C29.308 11.852 29.776 11.384 30.352 11.384H36.256C37.012 11.384 37.444 11.996 37.228 12.716L35.464 18.404H42.052L43.492 13.868ZM58.6505 26V19.412H52.7465C52.1345 19.412 51.6665 18.944 51.6665 18.368V12.428C51.6665 11.852 52.1345 11.384 52.7465 11.384H58.6505C59.2265 11.384 59.6945 11.852 59.6945 12.428C59.6945 18.332 59.6945 24.164 59.6945 30.032H66.2825C66.2825 24.164 66.2825 18.332 66.2825 12.428C66.2825 8.216 62.8625 4.796 58.6505 4.796H52.7465C48.4985 4.796 45.0785 8.216 45.0785 12.428V18.368C45.0785 22.58 48.4985 26 52.7465 26H58.6505ZM75.388 4.796C71.176 4.796 67.72 8.216 67.72 12.428V18.368C67.72 22.58 71.176 26 75.388 26H81.292C85.504 26 88.924 22.58 88.924 18.368V12.428C88.924 8.216 85.504 4.796 81.292 4.796H75.388ZM81.292 11.384C81.868 11.384 82.336 11.852 82.336 12.428V18.368C82.336 18.944 81.868 19.412 81.292 19.412H75.388C74.812 19.412 74.308 18.944 74.308 18.368V12.428C74.308 11.852 74.812 11.384 75.388 11.384H81.292Z" fill="#685F5F"/>
</svg>
