<svg width="18" height="18" viewBox="0 0 18 18" fill="none" xmlns="http://www.w3.org/2000/svg">
<path fill-rule="evenodd" clip-rule="evenodd" d="M2.28574 2.28574C3.74927 0.822204 5.73424 0 7.80399 0C9.87373 0 11.8587 0.822204 13.3222 2.28574C14.7858 3.74927 15.608 5.73424 15.608 7.80399C15.608 8.82882 15.4061 9.84362 15.0139 10.7904C14.7021 11.5434 14.2747 12.2416 13.7483 12.8604L17.8161 16.9281C18.0613 17.1733 18.0613 17.5709 17.8161 17.8161C17.5709 18.0613 17.1733 18.0613 16.9281 17.8161L12.8604 13.7483C12.2416 14.2747 11.5434 14.7021 10.7904 15.0139C9.84362 15.4061 8.82882 15.608 7.80399 15.608C6.77915 15.608 5.76435 15.4061 4.81753 15.0139C3.87071 14.6217 3.0104 14.0469 2.28574 13.3222C1.56107 12.5976 0.98623 11.7373 0.594043 10.7904C0.201856 9.84362 0 8.82882 0 7.80399C4.99016e-08 5.73424 0.822204 3.74927 2.28574 2.28574ZM7.80399 1.25581C6.0673 1.25581 4.40175 1.94571 3.17373 3.17373C1.94571 4.40175 1.25581 6.0673 1.25581 7.80399C1.25581 8.66391 1.42519 9.5154 1.75426 10.3099C2.08334 11.1043 2.56568 11.8262 3.17373 12.4342C3.78178 13.0423 4.50365 13.5246 5.29811 13.8537C6.09257 14.1828 6.94407 14.3522 7.80399 14.3522C8.66391 14.3522 9.5154 14.1828 10.3099 13.8537C11.1043 13.5246 11.8262 13.0423 12.4342 12.4342C13.0423 11.8262 13.5246 11.1043 13.8537 10.3099C14.1828 9.5154 14.3522 8.66391 14.3522 7.80399C14.3522 6.0673 13.6623 4.40175 12.4342 3.17373C11.2062 1.94571 9.54067 1.25581 7.80399 1.25581Z" fill="#A9A1A1"/>
</svg>
