<svg width="517" height="220" viewBox="0 0 517 220" fill="none" xmlns="http://www.w3.org/2000/svg">
<path d="M119.18 1V154.118C119.18 160.934 120.313 166.007 122.58 169.339C124.847 172.52 128.852 174.11 134.594 174.11V178.881C129.91 178.426 125.225 178.199 120.54 178.199C114.949 178.199 109.659 178.426 104.672 178.881C99.6854 179.335 95.0007 180.168 90.6182 181.38V28.2614C90.6182 21.4461 89.4848 16.4481 87.218 13.2676C85.1023 9.93569 81.0976 8.26971 75.2039 8.26971V3.49897C80.0397 3.95332 84.7245 4.1805 89.2581 4.1805C95.0007 4.1805 100.365 3.95332 105.352 3.49897C110.339 2.89316 114.949 2.06017 119.18 1ZM65.0032 58.249C71.6525 58.249 77.6218 59.5363 82.911 62.111C88.2003 64.6857 92.1294 69.0021 94.6985 75.0602L91.9783 77.3319C89.8626 72.9398 86.9913 69.6836 83.3644 67.5633C79.7375 65.4429 75.6572 64.3828 71.1236 64.3828C62.9631 64.3828 56.3894 69.0021 51.4024 78.2407C46.5665 87.3278 44.1486 101.337 44.1486 120.269C44.1486 132.991 45.1309 143.289 47.0954 151.165C49.06 158.889 51.8557 164.493 55.4826 167.976C59.2606 171.46 63.7187 173.201 68.8568 173.201C74.2972 173.201 79.2086 171.005 83.5911 166.613C87.9736 162.069 90.5426 155.633 91.2982 147.303L92.885 153.664C90.9204 162.902 87.218 169.945 81.7776 174.791C76.3373 179.638 69.1591 182.061 60.2429 182.061C51.1757 182.061 43.0907 179.865 35.9881 175.473C29.0365 170.929 23.5962 164.114 19.667 155.027C15.889 145.788 14 134.127 14 120.041C14 106.259 16.2668 94.8247 20.8004 85.7376C25.3341 76.499 31.4544 69.6079 39.1616 65.0643C46.8688 60.5207 55.4826 58.249 65.0032 58.249Z" fill="#685F5F"/>
<path d="M201.873 58.249C215.171 58.249 225.598 62.2625 233.155 70.2894C240.711 78.3164 244.489 91.1141 244.489 108.683H168.097L167.87 104.366H218.194C218.496 96.945 218.042 90.1297 216.833 83.9201C215.625 77.5591 213.66 72.4855 210.94 68.6992C208.371 64.9129 204.971 63.0197 200.739 63.0197C194.997 63.0197 190.01 66.4274 185.778 73.2427C181.547 79.9066 178.902 90.8869 177.844 106.184L178.751 107.547C178.449 109.516 178.222 111.636 178.071 113.908C178.071 116.179 178.071 118.451 178.071 120.723C178.071 131.173 179.582 139.806 182.605 146.621C185.627 153.437 189.556 158.435 194.392 161.615C199.228 164.796 204.215 166.386 209.353 166.386C212.829 166.386 216.38 165.856 220.007 164.796C223.634 163.735 227.185 161.767 230.661 158.889C234.137 156.011 237.31 151.922 240.182 146.621L244.489 148.439C242.826 153.74 240.031 159.04 236.101 164.341C232.323 169.491 227.412 173.731 221.367 177.063C215.322 180.395 208.22 182.061 200.059 182.061C189.783 182.061 180.716 179.789 172.857 175.246C164.999 170.702 158.879 163.963 154.496 155.027C150.114 145.94 147.922 134.884 147.922 121.859C147.922 108.077 150.189 96.4907 154.723 87.1006C159.408 77.7106 165.83 70.5923 173.991 65.7458C182.151 60.7479 191.445 58.249 201.873 58.249Z" fill="#685F5F"/>
<path d="M311.786 58.249C319.493 58.249 325.992 59.612 331.281 62.3382C336.721 64.9129 341.255 69.4564 344.882 75.9689H341.255C338.686 71.5768 335.361 68.3963 331.281 66.4274C327.201 64.3071 322.743 63.2469 317.907 63.2469C309.897 63.2469 303.701 67.9419 299.319 77.3319C294.936 86.722 292.745 101.034 292.745 120.269C292.745 132.839 293.727 143.062 295.692 150.938C297.656 158.813 300.528 164.493 304.306 167.976C308.084 171.46 312.466 173.201 317.453 173.201C323.045 173.201 328.032 170.778 332.414 165.932C336.948 160.934 339.517 153.815 340.121 144.577L341.708 150.938C339.895 160.934 336.041 168.658 330.147 174.11C324.405 179.411 317.378 182.061 309.066 182.061C300.452 182.061 292.594 179.865 285.491 175.473C278.389 171.081 272.797 164.266 268.717 155.027C264.637 145.788 262.596 134.127 262.596 120.041C262.596 106.259 264.712 94.8247 268.944 85.7376C273.175 76.499 278.993 69.6079 286.398 65.0643C293.803 60.5207 302.266 58.249 311.786 58.249ZM365.736 57.7946L369.363 59.8392C368.759 61.8081 368.305 63.9284 368.003 66.2002C367.852 68.3205 367.776 70.4409 367.776 72.5612V200.235C367.776 205.991 368.834 209.928 370.95 212.049C373.066 214.169 376.693 215.229 381.831 215.229V220C379.111 219.849 375.181 219.621 370.043 219.318C365.056 219.167 359.918 219.091 354.629 219.091C347.375 219.091 340.424 219.167 333.774 219.318C327.125 219.621 321.987 219.849 318.36 220V215.229C324.858 215.229 329.921 214.018 333.548 211.594C337.326 209.323 339.215 204.779 339.215 197.964V70.7438C342.388 70.2894 345.562 69.4564 348.735 68.2448C352.06 67.0332 355.158 65.5187 358.029 63.7012C361.052 61.8838 363.621 59.9149 365.736 57.7946Z" fill="#685F5F"/>
<path d="M447.823 58.249C458.251 58.249 467.469 60.3693 475.478 64.61C483.639 68.6992 490.061 75.2873 494.746 84.3745C499.582 93.4616 502 105.426 502 120.269C502 135.111 499.582 147.076 494.746 156.163C490.061 165.25 483.639 171.838 475.478 175.927C467.469 180.017 458.251 182.061 447.823 182.061C437.396 182.061 428.102 180.017 419.941 175.927C411.781 171.838 405.358 165.25 400.674 156.163C395.989 147.076 393.646 135.111 393.646 120.269C393.646 105.426 395.989 93.4616 400.674 84.3745C405.358 75.2873 411.781 68.6992 419.941 64.61C428.102 60.3693 437.396 58.249 447.823 58.249ZM447.823 62.7925C440.721 62.7925 434.902 67.3361 430.369 76.4232C425.986 85.3589 423.795 99.9741 423.795 120.269C423.795 140.563 425.986 155.178 430.369 164.114C434.902 173.05 440.721 177.518 447.823 177.518C454.775 177.518 460.517 173.05 465.051 164.114C469.585 155.178 471.851 140.563 471.851 120.269C471.851 99.9741 469.585 85.3589 465.051 76.4232C460.517 67.3361 454.775 62.7925 447.823 62.7925Z" fill="#685F5F"/>
<path d="M144.879 7.90234V7.53125C144.879 6.75651 144.99 6.04688 145.211 5.40234C145.439 4.75781 145.758 4.20117 146.168 3.73242C146.578 3.25716 147.066 2.88932 147.633 2.62891C148.206 2.36849 148.84 2.23828 149.537 2.23828C150.234 2.23828 150.868 2.36849 151.441 2.62891C152.014 2.88932 152.506 3.25716 152.916 3.73242C153.333 4.20117 153.652 4.75781 153.873 5.40234C154.094 6.04688 154.205 6.75651 154.205 7.53125V7.90234C154.205 8.67708 154.094 9.38672 153.873 10.0312C153.652 10.6758 153.336 11.2357 152.926 11.7109C152.516 12.1797 152.024 12.5443 151.451 12.8047C150.885 13.0651 150.253 13.1953 149.557 13.1953C148.854 13.1953 148.215 13.0651 147.643 12.8047C147.076 12.5443 146.585 12.1797 146.168 11.7109C145.758 11.2357 145.439 10.6758 145.211 10.0312C144.99 9.38672 144.879 8.67708 144.879 7.90234ZM145.66 7.53125V7.90234C145.66 8.51432 145.745 9.09701 145.914 9.65039C146.09 10.1973 146.344 10.6855 146.676 11.1152C147.008 11.5384 147.415 11.8737 147.896 12.1211C148.378 12.362 148.932 12.4824 149.557 12.4824C150.169 12.4824 150.715 12.362 151.197 12.1211C151.679 11.8737 152.083 11.5384 152.408 11.1152C152.74 10.6855 152.991 10.1973 153.16 9.65039C153.336 9.09701 153.424 8.51432 153.424 7.90234V7.53125C153.424 6.93229 153.336 6.35938 153.16 5.8125C152.991 5.26562 152.74 4.77734 152.408 4.34766C152.076 3.91797 151.669 3.57943 151.188 3.33203C150.706 3.07812 150.156 2.95117 149.537 2.95117C148.919 2.95117 148.368 3.07812 147.887 3.33203C147.411 3.57943 147.005 3.91797 146.666 4.34766C146.334 4.77734 146.083 5.26562 145.914 5.8125C145.745 6.35938 145.66 6.93229 145.66 7.53125ZM159.467 2.43359H160.248L160.053 6.16406C160.008 7.17969 159.897 8.0651 159.721 8.82031C159.552 9.57552 159.347 10.2201 159.106 10.7539C158.865 11.2878 158.605 11.737 158.325 12.1016C158.051 12.4596 157.774 12.7591 157.495 13H157.006L157.016 12.2871H157.27C157.439 12.0723 157.628 11.8151 157.836 11.5156C158.045 11.2161 158.246 10.8385 158.442 10.3828C158.644 9.92708 158.819 9.35742 158.969 8.67383C159.119 7.98372 159.223 7.14714 159.282 6.16406L159.467 2.43359ZM159.809 2.43359H165.366V13H164.584V3.18555H159.809V2.43359ZM156.547 12.2871H166.303V16.1055H165.532V13H157.241V16.1055H156.538L156.547 12.2871ZM174.221 13.1953C173.557 13.1953 172.942 13.0684 172.376 12.8145C171.809 12.554 171.315 12.1927 170.891 11.7305C170.468 11.2617 170.136 10.7083 169.895 10.0703C169.661 9.43229 169.544 8.73242 169.544 7.9707V7.54102C169.544 6.75326 169.661 6.03711 169.895 5.39258C170.136 4.74154 170.462 4.18164 170.872 3.71289C171.282 3.23763 171.754 2.87305 172.288 2.61914C172.828 2.36523 173.404 2.23828 174.016 2.23828C174.635 2.23828 175.195 2.35221 175.696 2.58008C176.197 2.80794 176.627 3.12695 176.985 3.53711C177.343 3.94727 177.617 4.43555 177.805 5.00195C177.994 5.56836 178.089 6.19336 178.089 6.87695V7.53125H170.032V6.81836H177.317V6.69141C177.311 6.02734 177.174 5.41211 176.907 4.8457C176.647 4.2793 176.272 3.82357 175.784 3.47852C175.296 3.12695 174.707 2.95117 174.016 2.95117C173.463 2.95117 172.958 3.06836 172.503 3.30273C172.054 3.53711 171.666 3.86263 171.341 4.2793C171.015 4.68945 170.764 5.17448 170.589 5.73438C170.413 6.28776 170.325 6.88997 170.325 7.54102V7.9707C170.325 8.5957 170.423 9.18164 170.618 9.72852C170.813 10.2754 171.087 10.7572 171.438 11.1738C171.79 11.584 172.203 11.9062 172.679 12.1406C173.154 12.375 173.675 12.4922 174.241 12.4922C174.853 12.4922 175.413 12.3848 175.921 12.1699C176.429 11.9551 176.891 11.5775 177.307 11.0371L177.815 11.418C177.581 11.7565 177.298 12.0592 176.966 12.3262C176.634 12.5931 176.24 12.8047 175.784 12.9609C175.335 13.1172 174.814 13.1953 174.221 13.1953ZM185.763 7.95117L181.3 2.43359H182.247L186.163 7.21875H188.038L188.009 7.95117H185.763ZM186.29 7.87305L181.739 13H180.734L185.812 7.21875L186.29 7.87305ZM188.468 2.43359V13H187.696V2.43359H188.468ZM194.904 2.43359L190.411 7.95117H188.185L188.146 7.21875H190.021L193.927 2.43359H194.904ZM194.454 13L189.894 7.87305L190.372 7.21875L195.46 13H194.454ZM200.927 2.43359H201.709L201.513 6.16406C201.468 7.17969 201.357 8.0651 201.181 8.82031C201.012 9.57552 200.807 10.2201 200.566 10.7539C200.325 11.2878 200.065 11.737 199.785 12.1016C199.511 12.4596 199.235 12.7591 198.955 13H198.466L198.476 12.2871H198.73C198.899 12.0723 199.088 11.8151 199.296 11.5156C199.505 11.2161 199.707 10.8385 199.902 10.3828C200.104 9.92708 200.28 9.35742 200.429 8.67383C200.579 7.98372 200.683 7.14714 200.742 6.16406L200.927 2.43359ZM201.269 2.43359H206.826V13H206.045V3.18555H201.269V2.43359ZM198.007 12.2871H207.763V16.1055H206.992V13H198.701V16.1055H197.998L198.007 12.2871ZM218.318 11.0566V5.59766C218.318 5.04427 218.201 4.56901 217.967 4.17188C217.732 3.77474 217.391 3.47201 216.941 3.26367C216.492 3.04883 215.942 2.94141 215.291 2.94141C214.686 2.94141 214.142 3.04883 213.66 3.26367C213.185 3.47201 212.811 3.75846 212.537 4.12305C212.264 4.48763 212.127 4.89453 212.127 5.34375L211.346 5.33398C211.346 4.93034 211.44 4.54297 211.629 4.17188C211.824 3.80078 212.098 3.47201 212.449 3.18555C212.807 2.89258 213.227 2.66146 213.709 2.49219C214.197 2.32292 214.731 2.23828 215.311 2.23828C216.053 2.23828 216.707 2.36523 217.273 2.61914C217.846 2.86654 218.292 3.24089 218.611 3.74219C218.93 4.24349 219.09 4.86849 219.09 5.61719V10.832C219.09 11.2096 219.116 11.5905 219.168 11.9746C219.22 12.3587 219.292 12.668 219.383 12.9023V13H218.533C218.462 12.7526 218.406 12.4499 218.367 12.0918C218.335 11.7337 218.318 11.3887 218.318 11.0566ZM218.572 7.00391L218.592 7.67773H216.014C215.363 7.67773 214.78 7.73958 214.266 7.86328C213.751 7.98698 213.315 8.16276 212.957 8.39062C212.599 8.61849 212.326 8.88867 212.137 9.20117C211.948 9.51367 211.854 9.86523 211.854 10.2559C211.854 10.6595 211.961 11.0306 212.176 11.3691C212.391 11.7077 212.693 11.9779 213.084 12.1797C213.475 12.375 213.927 12.4727 214.441 12.4727C215.145 12.4727 215.766 12.3522 216.307 12.1113C216.854 11.8639 217.312 11.5319 217.684 11.1152C218.055 10.6921 218.325 10.2038 218.494 9.65039L218.836 10.2168C218.725 10.5618 218.553 10.9102 218.318 11.2617C218.084 11.6133 217.781 11.9355 217.41 12.2285C217.039 12.515 216.603 12.7493 216.102 12.9316C215.6 13.1074 215.031 13.1953 214.393 13.1953C213.722 13.1953 213.136 13.0716 212.635 12.8242C212.14 12.5703 211.756 12.2253 211.482 11.7891C211.209 11.3464 211.072 10.8418 211.072 10.2754C211.072 9.78711 211.183 9.34115 211.404 8.9375C211.626 8.53385 211.945 8.1888 212.361 7.90234C212.785 7.60938 213.296 7.38802 213.895 7.23828C214.5 7.08203 215.18 7.00391 215.936 7.00391H218.572Z" fill="#685F5F"/>
<path d="M150.123 32H146.266L146.246 31.2871H149.615C150.292 31.2871 150.859 31.209 151.314 31.0527C151.777 30.8965 152.125 30.6621 152.359 30.3496C152.6 30.0371 152.721 29.653 152.721 29.1973C152.721 28.8392 152.649 28.5332 152.506 28.2793C152.369 28.0189 152.161 27.8073 151.881 27.6445C151.607 27.4753 151.266 27.3516 150.855 27.2734C150.452 27.1888 149.983 27.1465 149.449 27.1465H146.5V37H145.729V26.4336H149.449C150.074 26.4336 150.634 26.4889 151.129 26.5996C151.63 26.7103 152.057 26.8796 152.408 27.1074C152.76 27.3288 153.027 27.6152 153.209 27.9668C153.398 28.3184 153.492 28.7285 153.492 29.1973C153.492 29.5228 153.434 29.8288 153.316 30.1152C153.199 30.3952 153.027 30.6491 152.799 30.877C152.571 31.0983 152.291 31.2806 151.959 31.4238C151.633 31.5605 151.256 31.6452 150.826 31.6777L150.123 32ZM150.123 37H146.08L146.246 36.2871H150.123C150.755 36.2871 151.298 36.2057 151.754 36.043C152.21 35.8737 152.558 35.6263 152.799 35.3008C153.046 34.9753 153.17 34.5781 153.17 34.1094C153.17 33.6862 153.046 33.3184 152.799 33.0059C152.558 32.6868 152.21 32.4395 151.754 32.2637C151.298 32.0879 150.755 32 150.123 32H147.457L147.477 31.2871H150.973L151.363 31.5508C151.871 31.6029 152.317 31.7493 152.701 31.9902C153.085 32.2311 153.385 32.5371 153.6 32.9082C153.821 33.2728 153.932 33.6732 153.932 34.1094C153.932 34.5911 153.84 35.0111 153.658 35.3691C153.476 35.7272 153.215 36.0299 152.877 36.2773C152.545 36.5182 152.145 36.7005 151.676 36.8242C151.214 36.9414 150.696 37 150.123 37ZM165.511 26.4336V37H164.72V26.4336H165.511ZM172.483 26.4336L167.727 31.9609H165.218L165.188 31.2383H167.376L171.438 26.4336H172.483ZM171.956 37L167.249 31.873L167.727 31.2188L173.04 37H171.956ZM175.441 31.9023V31.5312C175.441 30.7565 175.551 30.0469 175.773 29.4023C176.001 28.7578 176.32 28.2012 176.73 27.7324C177.14 27.2572 177.628 26.8893 178.195 26.6289C178.767 26.3685 179.402 26.2383 180.099 26.2383C180.795 26.2383 181.43 26.3685 182.003 26.6289C182.576 26.8893 183.068 27.2572 183.478 27.7324C183.894 28.2012 184.213 28.7578 184.435 29.4023C184.656 30.0469 184.767 30.7565 184.767 31.5312V31.9023C184.767 32.6771 184.656 33.3867 184.435 34.0312C184.213 34.6758 183.898 35.2357 183.487 35.7109C183.077 36.1797 182.586 36.5443 182.013 36.8047C181.446 37.0651 180.815 37.1953 180.118 37.1953C179.415 37.1953 178.777 37.0651 178.204 36.8047C177.638 36.5443 177.146 36.1797 176.73 35.7109C176.32 35.2357 176.001 34.6758 175.773 34.0312C175.551 33.3867 175.441 32.6771 175.441 31.9023ZM176.222 31.5312V31.9023C176.222 32.5143 176.307 33.097 176.476 33.6504C176.652 34.1973 176.905 34.6855 177.237 35.1152C177.57 35.5384 177.976 35.8737 178.458 36.1211C178.94 36.362 179.493 36.4824 180.118 36.4824C180.73 36.4824 181.277 36.362 181.759 36.1211C182.241 35.8737 182.644 35.5384 182.97 35.1152C183.302 34.6855 183.553 34.1973 183.722 33.6504C183.898 33.097 183.986 32.5143 183.986 31.9023V31.5312C183.986 30.9323 183.898 30.3594 183.722 29.8125C183.553 29.2656 183.302 28.7773 182.97 28.3477C182.638 27.918 182.231 27.5794 181.749 27.332C181.267 27.0781 180.717 26.9512 180.099 26.9512C179.48 26.9512 178.93 27.0781 178.448 27.332C177.973 27.5794 177.566 27.918 177.228 28.3477C176.896 28.7773 176.645 29.2656 176.476 29.8125C176.307 30.3594 176.222 30.9323 176.222 31.5312ZM192.06 26.4336V37H191.279V26.4336H192.06ZM196.084 26.4336V27.1465H187.431V26.4336H196.084ZM198.543 31.9023V31.5312C198.543 30.7565 198.654 30.0469 198.875 29.4023C199.103 28.7578 199.422 28.2012 199.832 27.7324C200.242 27.2572 200.73 26.8893 201.297 26.6289C201.87 26.3685 202.505 26.2383 203.201 26.2383C203.898 26.2383 204.533 26.3685 205.105 26.6289C205.678 26.8893 206.17 27.2572 206.58 27.7324C206.997 28.2012 207.316 28.7578 207.537 29.4023C207.758 30.0469 207.869 30.7565 207.869 31.5312V31.9023C207.869 32.6771 207.758 33.3867 207.537 34.0312C207.316 34.6758 207 35.2357 206.59 35.7109C206.18 36.1797 205.688 36.5443 205.115 36.8047C204.549 37.0651 203.917 37.1953 203.221 37.1953C202.518 37.1953 201.88 37.0651 201.307 36.8047C200.74 36.5443 200.249 36.1797 199.832 35.7109C199.422 35.2357 199.103 34.6758 198.875 34.0312C198.654 33.3867 198.543 32.6771 198.543 31.9023ZM199.324 31.5312V31.9023C199.324 32.5143 199.409 33.097 199.578 33.6504C199.754 34.1973 200.008 34.6855 200.34 35.1152C200.672 35.5384 201.079 35.8737 201.561 36.1211C202.042 36.362 202.596 36.4824 203.221 36.4824C203.833 36.4824 204.38 36.362 204.861 36.1211C205.343 35.8737 205.747 35.5384 206.072 35.1152C206.404 34.6855 206.655 34.1973 206.824 33.6504C207 33.097 207.088 32.5143 207.088 31.9023V31.5312C207.088 30.9323 207 30.3594 206.824 29.8125C206.655 29.2656 206.404 28.7773 206.072 28.3477C205.74 27.918 205.333 27.5794 204.852 27.332C204.37 27.0781 203.82 26.9512 203.201 26.9512C202.583 26.9512 202.033 27.0781 201.551 27.332C201.076 27.5794 200.669 27.918 200.33 28.3477C199.998 28.7773 199.747 29.2656 199.578 29.8125C199.409 30.3594 199.324 30.9323 199.324 31.5312ZM212.741 28.4648V41.0625H211.959V26.4336H212.711L212.741 28.4648ZM220.221 31.6094V31.8145C220.221 32.6152 220.13 33.3444 219.948 34.002C219.772 34.6595 219.511 35.2259 219.166 35.7012C218.828 36.1764 218.411 36.5443 217.916 36.8047C217.422 37.0651 216.858 37.1953 216.227 37.1953C215.621 37.1953 215.078 37.1074 214.596 36.9316C214.114 36.7493 213.698 36.4954 213.346 36.1699C212.995 35.8444 212.711 35.4733 212.496 35.0566C212.282 34.6335 212.132 34.181 212.047 33.6992V30.0273C212.158 29.474 212.324 28.9694 212.545 28.5137C212.773 28.0514 213.056 27.651 213.395 27.3125C213.74 26.9674 214.147 26.7038 214.616 26.5215C215.084 26.3327 215.615 26.2383 216.207 26.2383C216.839 26.2383 217.402 26.3652 217.897 26.6191C218.398 26.8665 218.821 27.2246 219.166 27.6934C219.511 28.1556 219.772 28.7188 219.948 29.3828C220.13 30.0404 220.221 30.7826 220.221 31.6094ZM219.43 31.8145V31.6094C219.43 30.9453 219.362 30.3301 219.225 29.7637C219.095 29.1973 218.893 28.7057 218.62 28.2891C218.346 27.8724 218.001 27.5469 217.584 27.3125C217.168 27.0781 216.676 26.9609 216.11 26.9609C215.491 26.9609 214.967 27.0651 214.537 27.2734C214.108 27.4753 213.753 27.7389 213.473 28.0645C213.2 28.39 212.988 28.7415 212.838 29.1191C212.689 29.4902 212.578 29.8418 212.506 30.1738V33.6406C212.623 34.1615 212.832 34.6367 213.131 35.0664C213.431 35.4961 213.828 35.8411 214.323 36.1016C214.824 36.3555 215.426 36.4824 216.129 36.4824C216.696 36.4824 217.184 36.3652 217.594 36.1309C218.004 35.8965 218.346 35.571 218.62 35.1543C218.893 34.7376 219.095 34.2461 219.225 33.6797C219.362 33.1068 219.43 32.485 219.43 31.8145ZM223.852 31.9023V31.5312C223.852 30.7565 223.963 30.0469 224.184 29.4023C224.412 28.7578 224.731 28.2012 225.141 27.7324C225.552 27.2572 226.04 26.8893 226.606 26.6289C227.179 26.3685 227.814 26.2383 228.511 26.2383C229.207 26.2383 229.842 26.3685 230.415 26.6289C230.988 26.8893 231.479 27.2572 231.889 27.7324C232.306 28.2012 232.625 28.7578 232.846 29.4023C233.068 30.0469 233.179 30.7565 233.179 31.5312V31.9023C233.179 32.6771 233.068 33.3867 232.846 34.0312C232.625 34.6758 232.309 35.2357 231.899 35.7109C231.489 36.1797 230.998 36.5443 230.425 36.8047C229.858 37.0651 229.227 37.1953 228.53 37.1953C227.827 37.1953 227.189 37.0651 226.616 36.8047C226.05 36.5443 225.558 36.1797 225.141 35.7109C224.731 35.2357 224.412 34.6758 224.184 34.0312C223.963 33.3867 223.852 32.6771 223.852 31.9023ZM224.634 31.5312V31.9023C224.634 32.5143 224.718 33.097 224.887 33.6504C225.063 34.1973 225.317 34.6855 225.649 35.1152C225.981 35.5384 226.388 35.8737 226.87 36.1211C227.352 36.362 227.905 36.4824 228.53 36.4824C229.142 36.4824 229.689 36.362 230.171 36.1211C230.652 35.8737 231.056 35.5384 231.382 35.1152C231.714 34.6855 231.964 34.1973 232.134 33.6504C232.309 33.097 232.397 32.5143 232.397 31.9023V31.5312C232.397 30.9323 232.309 30.3594 232.134 29.8125C231.964 29.2656 231.714 28.7773 231.382 28.3477C231.05 27.918 230.643 27.5794 230.161 27.332C229.679 27.0781 229.129 26.9512 228.511 26.9512C227.892 26.9512 227.342 27.0781 226.86 27.332C226.385 27.5794 225.978 27.918 225.639 28.3477C225.307 28.7773 225.057 29.2656 224.887 29.8125C224.718 30.3594 224.634 30.9323 224.634 31.5312ZM238.089 35.6914L244.3 26.4336H245.091V37H244.3V27.7422L238.089 37H237.318V26.4336H238.089V35.6914ZM243.187 22.6543H243.9C243.9 23.1361 243.789 23.5625 243.568 23.9336C243.353 24.3047 243.037 24.5944 242.62 24.8027C242.21 25.0111 241.719 25.1152 241.146 25.1152C240.286 25.1152 239.609 24.8874 239.114 24.4316C238.626 23.9694 238.382 23.377 238.382 22.6543H239.085C239.085 23.1426 239.238 23.5658 239.544 23.9238C239.857 24.2754 240.39 24.4512 241.146 24.4512C241.868 24.4512 242.389 24.2721 242.708 23.9141C243.027 23.556 243.187 23.1361 243.187 22.6543ZM260.889 32H257.031L257.012 31.2871H260.381C261.058 31.2871 261.624 31.209 262.08 31.0527C262.542 30.8965 262.891 30.6621 263.125 30.3496C263.366 30.0371 263.486 29.653 263.486 29.1973C263.486 28.8392 263.415 28.5332 263.271 28.2793C263.135 28.0189 262.926 27.8073 262.646 27.6445C262.373 27.4753 262.031 27.3516 261.621 27.2734C261.217 27.1888 260.749 27.1465 260.215 27.1465H257.266V37H256.494V26.4336H260.215C260.84 26.4336 261.4 26.4889 261.895 26.5996C262.396 26.7103 262.822 26.8796 263.174 27.1074C263.525 27.3288 263.792 27.6152 263.975 27.9668C264.163 28.3184 264.258 28.7285 264.258 29.1973C264.258 29.5228 264.199 29.8288 264.082 30.1152C263.965 30.3952 263.792 30.6491 263.564 30.877C263.337 31.0983 263.057 31.2806 262.725 31.4238C262.399 31.5605 262.021 31.6452 261.592 31.6777L260.889 32ZM260.889 37H256.846L257.012 36.2871H260.889C261.52 36.2871 262.064 36.2057 262.52 36.043C262.975 35.8737 263.324 35.6263 263.564 35.3008C263.812 34.9753 263.936 34.5781 263.936 34.1094C263.936 33.6862 263.812 33.3184 263.564 33.0059C263.324 32.6868 262.975 32.4395 262.52 32.2637C262.064 32.0879 261.52 32 260.889 32H258.223L258.242 31.2871H261.738L262.129 31.5508C262.637 31.6029 263.083 31.7493 263.467 31.9902C263.851 32.2311 264.15 32.5371 264.365 32.9082C264.587 33.2728 264.697 33.6732 264.697 34.1094C264.697 34.5911 264.606 35.0111 264.424 35.3691C264.242 35.7272 263.981 36.0299 263.643 36.2773C263.311 36.5182 262.91 36.7005 262.441 36.8242C261.979 36.9414 261.462 37 260.889 37ZM269.842 35.6914L276.053 26.4336H276.844V37H276.053V27.7422L269.842 37H269.071V26.4336H269.842V35.6914ZM283.571 26.4336H284.352L284.157 30.1641C284.111 31.1797 284.001 32.0651 283.825 32.8203C283.656 33.5755 283.451 34.2201 283.21 34.7539C282.969 35.2878 282.708 35.737 282.429 36.1016C282.155 36.4596 281.878 36.7591 281.598 37H281.11L281.12 36.2871H281.374C281.543 36.0723 281.732 35.8151 281.94 35.5156C282.149 35.2161 282.35 34.8385 282.546 34.3828C282.748 33.9271 282.923 33.3574 283.073 32.6738C283.223 31.9837 283.327 31.1471 283.386 30.1641L283.571 26.4336ZM283.913 26.4336H289.47V37H288.688V27.1855H283.913V26.4336ZM280.651 36.2871H290.407V40.1055H289.636V37H281.345V40.1055H280.641L280.651 36.2871ZM296.812 32.2734H297.71L294.859 37H293.97L296.812 32.2734ZM297.886 26.4336H301.89V37H301.118V27.1465H297.886C297.209 27.1465 296.659 27.2604 296.236 27.4883C295.812 27.7161 295.503 28.0156 295.308 28.3867C295.113 28.7513 295.015 29.1452 295.015 29.5684C295.015 29.9655 295.099 30.3464 295.269 30.7109C295.438 31.069 295.708 31.3652 296.079 31.5996C296.45 31.8275 296.929 31.9414 297.515 31.9414H301.489V32.6641H297.515C296.988 32.6641 296.519 32.5859 296.109 32.4297C295.705 32.2734 295.363 32.0553 295.083 31.7754C294.803 31.4954 294.592 31.1667 294.448 30.7891C294.305 30.4049 294.234 29.9915 294.234 29.5488C294.234 29.0996 294.315 28.6862 294.478 28.3086C294.64 27.931 294.875 27.6022 295.181 27.3223C295.487 27.0358 295.868 26.8177 296.323 26.668C296.779 26.5117 297.3 26.4336 297.886 26.4336ZM310.209 26.4336V37H309.427V26.4336H310.209ZM314.232 26.4336V27.1465H305.58V26.4336H314.232ZM328.33 26.4336V37H326.514V26.4336H328.33ZM331.875 26.4336V27.8984H323.038V26.4336H331.875ZM338.856 37.1953C338.121 37.1953 337.453 37.0716 336.854 36.8242C336.262 36.5703 335.751 36.2155 335.321 35.7598C334.898 35.304 334.572 34.7637 334.345 34.1387C334.117 33.5137 334.003 32.8301 334.003 32.0879V31.6777C334.003 30.8184 334.13 30.0534 334.384 29.3828C334.637 28.7057 334.983 28.1328 335.419 27.6641C335.855 27.1953 336.35 26.8405 336.903 26.5996C337.457 26.3587 338.029 26.2383 338.622 26.2383C339.377 26.2383 340.028 26.3685 340.575 26.6289C341.128 26.8893 341.581 27.2539 341.932 27.7227C342.284 28.1849 342.544 28.7318 342.714 29.3633C342.883 29.9883 342.968 30.6719 342.968 31.4141V32.2246H335.077V30.75H341.161V30.6133C341.135 30.1445 341.037 29.6888 340.868 29.2461C340.705 28.8034 340.445 28.4388 340.087 28.1523C339.729 27.8659 339.24 27.7227 338.622 27.7227C338.212 27.7227 337.834 27.8105 337.489 27.9863C337.144 28.1556 336.848 28.4095 336.6 28.748C336.353 29.0866 336.161 29.5 336.024 29.9883C335.887 30.4766 335.819 31.0397 335.819 31.6777V32.0879C335.819 32.5892 335.887 33.0612 336.024 33.5039C336.167 33.9401 336.373 34.3242 336.639 34.6562C336.913 34.9883 337.242 35.2487 337.626 35.4375C338.016 35.6263 338.459 35.7207 338.954 35.7207C339.592 35.7207 340.132 35.5905 340.575 35.3301C341.018 35.0697 341.405 34.7214 341.737 34.2852L342.831 35.1543C342.603 35.4993 342.313 35.8281 341.962 36.1406C341.61 36.4531 341.177 36.707 340.663 36.9023C340.155 37.0977 339.553 37.1953 338.856 37.1953ZM353.454 21.834H354.939C354.939 22.472 354.841 22.9798 354.646 23.3574C354.45 23.7285 354.183 24.015 353.845 24.2168C353.513 24.4186 353.135 24.5716 352.712 24.6758C352.295 24.7799 351.863 24.8809 351.413 24.9785C350.853 25.0957 350.333 25.2812 349.851 25.5352C349.376 25.7826 348.965 26.1341 348.62 26.5898C348.282 27.0456 348.031 27.638 347.868 28.3672C347.712 29.0964 347.67 29.998 347.741 31.0723V31.9707H346.257V31.0723C346.257 29.8678 346.371 28.8164 346.599 27.918C346.833 27.0195 347.162 26.2611 347.585 25.6426C348.008 25.0241 348.51 24.5326 349.089 24.168C349.675 23.8034 350.32 23.5527 351.023 23.416C351.53 23.3184 351.967 23.2142 352.331 23.1035C352.696 22.9863 352.973 22.8301 353.161 22.6348C353.357 22.4395 353.454 22.1725 353.454 21.834ZM351.316 27.0391C352.006 27.0391 352.621 27.1595 353.161 27.4004C353.702 27.6413 354.161 27.9766 354.538 28.4062C354.916 28.8359 355.202 29.3438 355.398 29.9297C355.599 30.5091 355.7 31.1406 355.7 31.8242V32.0391C355.7 32.7747 355.593 33.4583 355.378 34.0898C355.17 34.7148 354.861 35.2617 354.45 35.7305C354.047 36.1927 353.552 36.554 352.966 36.8145C352.387 37.0749 351.726 37.2051 350.984 37.2051C350.241 37.2051 349.577 37.0749 348.991 36.8145C348.412 36.554 347.917 36.1927 347.507 35.7305C347.097 35.2617 346.784 34.7148 346.57 34.0898C346.361 33.4583 346.257 32.7747 346.257 32.0391V31.8242C346.257 31.6615 346.286 31.502 346.345 31.3457C346.404 31.1895 346.475 31.0299 346.56 30.8672C346.651 30.7044 346.732 30.5319 346.804 30.3496C347.045 29.7637 347.374 29.2201 347.79 28.7188C348.213 28.2174 348.718 27.8138 349.304 27.5078C349.896 27.1953 350.567 27.0391 351.316 27.0391ZM350.964 28.5137C350.3 28.5137 349.753 28.6667 349.323 28.9727C348.9 29.2786 348.585 29.6855 348.376 30.1934C348.168 30.6947 348.064 31.2383 348.064 31.8242V32.0391C348.064 32.5339 348.122 33.0026 348.239 33.4453C348.357 33.888 348.532 34.2819 348.767 34.627C349.008 34.9655 349.31 35.2324 349.675 35.4277C350.046 35.623 350.482 35.7207 350.984 35.7207C351.485 35.7207 351.918 35.623 352.282 35.4277C352.647 35.2324 352.946 34.9655 353.181 34.627C353.415 34.2819 353.591 33.888 353.708 33.4453C353.825 33.0026 353.884 32.5339 353.884 32.0391V31.8242C353.884 31.3815 353.825 30.9616 353.708 30.5645C353.591 30.1673 353.412 29.8158 353.171 29.5098C352.937 29.2038 352.634 28.9629 352.263 28.7871C351.898 28.6048 351.465 28.5137 350.964 28.5137ZM361.49 31.9609H363.443L360.386 37H358.433L361.49 31.9609ZM363.004 26.4336H367.418V37H365.611V27.8984H363.004C362.489 27.8984 362.069 27.9863 361.744 28.1621C361.418 28.3314 361.181 28.5527 361.031 28.8262C360.881 29.0996 360.806 29.3828 360.806 29.6758C360.806 29.9622 360.875 30.2389 361.011 30.5059C361.148 30.7663 361.363 30.9811 361.656 31.1504C361.949 31.3197 362.326 31.4043 362.789 31.4043H366.099V32.8887H362.789C362.183 32.8887 361.646 32.8073 361.177 32.6445C360.709 32.4818 360.311 32.2572 359.986 31.9707C359.66 31.6777 359.413 31.3359 359.244 30.9453C359.074 30.5482 358.99 30.1185 358.99 29.6562C358.99 29.194 359.078 28.7676 359.254 28.377C359.436 27.9863 359.696 27.6445 360.035 27.3516C360.38 27.0586 360.8 26.834 361.295 26.6777C361.796 26.515 362.365 26.4336 363.004 26.4336Z" fill="#685F5F"/>
</svg>
