<svg width="21" height="21" viewBox="0 0 21 21" fill="none" xmlns="http://www.w3.org/2000/svg">
<g clip-path="url(#clip0_338_1209)">
<path d="M13.573 0H7.437C1.53 0 0 1.527 0 7.427V13.563C0 19.471 1.527 21 7.427 21H13.563C19.471 21 21 19.473 21 13.573V7.437C21 1.529 19.473 0 13.573 0Z" fill="#685F5F"/>
<path fill-rule="evenodd" clip-rule="evenodd" d="M15.7935 4.00056C15.8006 4.00019 15.8077 4 15.8148 4C16.1568 4 16.4668 4.17212 16.6445 4.48642C16.8135 4.78557 16.8404 5.16972 16.7476 5.58729L14.7881 15.7489C14.7118 16.1511 14.5412 16.5339 14.186 16.7103C13.8182 16.8929 13.4244 16.7729 13.1036 16.576C13.0886 16.5668 13.0742 16.5566 13.0605 16.5455L8.38479 12.7461C8.31692 12.6917 8.26482 12.6233 8.22992 12.5485C8.19455 12.4727 8.1769 12.3906 8.1769 12.3087C8.1769 12.2269 8.19455 12.1448 8.22992 12.069C8.26127 12.0018 8.30649 11.9397 8.36456 11.8884L11.864 8.41141L7.11189 11.7101C7.04078 11.7603 6.95761 11.7942 6.86824 11.8065C6.77953 11.8187 6.68994 11.8089 6.60677 11.7787L3.73629 10.78C3.37703 10.6635 2.95712 10.3871 3.00353 9.89885C3.02443 9.67905 3.14315 9.49695 3.28637 9.35845C3.43078 9.21879 3.62238 9.10057 3.84665 9.00209L3.8512 9.0001L15.353 4.11886C15.49 4.0494 15.6397 4.00875 15.7935 4.00056ZM15.8251 4.80023C15.7864 4.80376 15.7474 4.8151 15.7098 4.83494C15.6999 4.84019 15.6897 4.84501 15.6794 4.84941L4.1661 9.73555C3.99986 9.80878 3.89824 9.87963 3.84249 9.93354C3.83667 9.93917 3.83156 9.94439 3.82709 9.9492C3.85785 9.96921 3.90808 9.99495 3.98545 10.0197L3.99489 10.0228L6.75567 10.9835L13.438 6.34492C13.5552 6.26647 13.6794 6.21177 13.8017 6.18396C13.9161 6.15796 14.0624 6.14828 14.2036 6.20169C14.2776 6.22964 14.3628 6.28027 14.4294 6.36793C14.4994 6.45994 14.5309 6.56967 14.5269 6.67809C14.5196 6.87223 14.4045 7.01621 14.3174 7.10141L9.09393 12.2915L13.5432 15.9069C13.7543 16.0312 13.8282 15.9948 13.8302 15.9938C13.8448 15.9865 13.9413 15.9207 14.0021 15.6L14.0023 15.5987L15.9655 5.41803C16.0328 5.11885 15.9889 4.95248 15.948 4.88001C15.9167 4.82469 15.8783 4.80265 15.8251 4.80023Z" fill="#DBD7D2"/>
</g>
<defs>
<clipPath id="clip0_338_1209">
<rect width="21" height="21" fill="white"/>
</clipPath>
</defs>
</svg>
