<svg width="21" height="21" viewBox="0 0 21 21" fill="none" xmlns="http://www.w3.org/2000/svg">
<path d="M13.573 0H7.437C1.53 0 0 1.527 0 7.427V13.563C0 19.471 1.527 21 7.427 21H13.563C19.471 21 21 19.473 21 13.573V7.437C21 1.529 19.473 0 13.573 0ZM20 13.573C20 18.919 18.917 20 13.562 20H7.428C2.08 20 1 18.917 1 13.562V7.428C1 2.08 2.083 1 7.438 1H13.573C18.919 1 20 2.083 20 7.438V13.573Z" fill="#A9A1A1"/>
<path d="M13.875 12.367C13.4349 11.8943 12.908 11.5106 12.323 11.237C13.155 10.7243 13.8765 10.0512 14.4457 9.25678C15.0148 8.46239 15.4201 7.56264 15.638 6.61C15.6548 6.54516 15.6584 6.47761 15.6485 6.41136C15.6387 6.34511 15.6156 6.28151 15.5808 6.22434C15.5459 6.16717 15.4999 6.11759 15.4454 6.07854C15.391 6.03949 15.3293 6.01177 15.264 5.99703C15.1987 5.98229 15.131 5.98082 15.0651 5.99272C14.9992 6.00462 14.9364 6.02964 14.8803 6.06629C14.8243 6.10294 14.7761 6.15048 14.7388 6.20609C14.7015 6.2617 14.6757 6.32424 14.663 6.39C14.4409 7.36543 13.992 8.27474 13.3526 9.04412C12.7132 9.81349 11.9013 10.4212 10.983 10.818C10.874 10.8 10.763 10.795 10.654 10.784C10.654 10.784 10.654 6.94541 10.654 6.502C10.654 6.05859 10.3 6 10.15 6C10 6 9.65 6.042 9.65 6.502V7V12.46C9.65 12.467 9.654 12.473 9.654 12.48V13.478C7.52506 11.6733 6.10522 9.17204 5.647 6.419C5.62258 6.28947 5.54896 6.17443 5.44158 6.09799C5.33419 6.02155 5.20138 5.98966 5.071 6.009C4.94026 6.03103 4.82361 6.10408 4.74673 6.2121C4.66984 6.32012 4.639 6.45425 4.661 6.585C5.22393 9.93815 7.09404 12.931 9.861 14.907C9.871 14.914 9.883 14.911 9.892 14.917C9.96931 14.97 10.0603 14.9995 10.154 15.002C10.2276 15.0011 10.3 14.9836 10.366 14.951L10.382 14.947C10.392 14.942 10.398 14.929 10.408 14.923C10.4836 14.8783 10.5458 14.814 10.588 14.737C10.6296 14.6655 10.6523 14.5847 10.654 14.502V11.762C11.6079 11.8813 12.4884 12.3353 13.139 13.043L14.786 14.84C14.8756 14.9376 15.0004 14.9956 15.1328 15.0012C15.1983 15.004 15.2638 14.9938 15.3254 14.9713C15.3871 14.9488 15.4437 14.9144 15.492 14.87C15.5403 14.8256 15.5794 14.7721 15.6071 14.7126C15.6348 14.6531 15.6504 14.5888 15.6532 14.5232C15.656 14.4577 15.6458 14.3922 15.6233 14.3306C15.6008 14.2689 15.5664 14.2123 15.522 14.164L13.875 12.367Z" fill="#A9A1A1"/>
</svg>
