<svg width="21" height="21" viewBox="0 0 21 21" fill="none" xmlns="http://www.w3.org/2000/svg">
<g clip-path="url(#clip0_338_1207)">
<path d="M13.573 0H7.437C1.53 0 0 1.527 0 7.427V13.563C0 19.471 1.527 21 7.427 21H13.563C19.471 21 21 19.473 21 13.573V7.437C21 1.529 19.473 0 13.573 0Z" fill="#685F5F"/>
<path d="M13.8752 12.3666C13.4352 11.8939 12.9083 11.5102 12.3232 11.2366C13.1552 10.7239 13.8768 10.0508 14.4459 9.25639C15.0151 8.46199 15.4204 7.56225 15.6382 6.6096C15.655 6.54476 15.6586 6.47721 15.6487 6.41097C15.6389 6.34472 15.6159 6.28112 15.581 6.22394C15.5461 6.16677 15.5001 6.11719 15.4457 6.07814C15.3913 6.0391 15.3296 6.01138 15.2642 5.99664C15.1989 5.9819 15.1313 5.98043 15.0653 5.99233C14.9994 6.00422 14.9366 6.02924 14.8805 6.06589C14.8245 6.10255 14.7764 6.15009 14.739 6.2057C14.7017 6.2613 14.6759 6.32384 14.6632 6.3896C14.4412 7.36503 13.9922 8.27435 13.3528 9.04372C12.7134 9.81309 11.9016 10.4208 10.9832 10.8176C10.8742 10.7996 10.7632 10.7946 10.6542 10.7836C10.6542 10.7836 10.6542 6.94501 10.6542 6.5016C10.6542 6.0582 10.3002 5.9996 10.1502 5.9996C10.0002 5.9996 9.65023 6.0416 9.65023 6.5016V6.9996V12.4596C9.65023 12.4666 9.65423 12.4726 9.65423 12.4796V13.4776C7.52529 11.6729 6.10545 9.17165 5.64723 6.4186C5.62281 6.28908 5.54919 6.17403 5.4418 6.09759C5.33442 6.02116 5.20161 5.98927 5.07123 6.0086C4.94048 6.03063 4.82384 6.10369 4.74696 6.21171C4.67007 6.31972 4.63923 6.45386 4.66123 6.5846C5.22416 9.93775 7.09427 12.9306 9.86123 14.9066C9.87123 14.9136 9.88323 14.9106 9.89223 14.9166C9.96954 14.9696 10.0605 14.9991 10.1542 15.0016C10.2278 15.0007 10.3003 14.9832 10.3662 14.9506L10.3822 14.9466C10.3922 14.9416 10.3982 14.9286 10.4082 14.9226C10.4838 14.8779 10.546 14.8136 10.5882 14.7366C10.6298 14.6651 10.6525 14.5843 10.6542 14.5016V11.7616C11.6081 11.8809 12.4887 12.3349 13.1392 13.0426L14.7862 14.8396C14.8759 14.9372 15.0006 14.9952 15.133 15.0008C15.1986 15.0036 15.264 14.9935 15.3257 14.9709C15.3873 14.9484 15.4439 14.914 15.4922 14.8696C15.5406 14.8252 15.5797 14.7717 15.6073 14.7122C15.635 14.6527 15.6507 14.5884 15.6534 14.5228C15.6562 14.4573 15.6461 14.3918 15.6236 14.3302C15.601 14.2685 15.5666 14.2119 15.5222 14.1636L13.8752 12.3666Z" fill="#DBD7D2"/>
</g>
<defs>
<clipPath id="clip0_338_1207">
<rect width="21" height="21" fill="white"/>
</clipPath>
</defs>
</svg>
